<?xml version="1.0" encoding="UTF-8" standalone="no"?>
<!-- Created with Inkscape (http://www.inkscape.org/) -->

<svg
     xmlns:dc="http://purl.org/dc/elements/1.1/"
     xmlns:cc="http://creativecommons.org/ns#"
     xmlns:rdf="http://www.w3.org/1999/02/22-rdf-syntax-ns#"
     xmlns:svg="http://www.w3.org/2000/svg"
     xmlns="http://www.w3.org/2000/svg"
     xmlns:sodipodi="http://sodipodi.sourceforge.net/DTD/sodipodi-0.dtd"
     xmlns:inkscape="http://www.inkscape.org/namespaces/inkscape"
     width="3906.4"
     height="433.47"
     viewBox="0 0 3906.4 433.47"
     id="svg2"
     version="1.1"
     inkscape:version="0.91 r13725"
     sodipodi:docname="banner.svg">
    <defs
         id="defs4">
        <inkscape:path-effect
             effect="spiro"
             id="path-effect3376"
             is_visible="true" />
    </defs>
    <sodipodi:namedview
         id="base"
         pagecolor="#ffffff"
         bordercolor="#666666"
         borderopacity="1.0"
         inkscape:pageopacity="0.0"
         inkscape:pageshadow="2"
         inkscape:zoom="0.18215"
         inkscape:cx="1180.79"
         inkscape:cy="274.09"
         inkscape:document-units="px"
         inkscape:current-layer="layer1"
         showgrid="false"
         inkscape:window-width="1366"
         inkscape:window-height="706"
         inkscape:window-x="-8"
         inkscape:window-y="-8"
         inkscape:window-maximized="1"
         width="420mm"
         showguides="false"
         inkscape:guide-bbox="true"
         inkscape:snap-global="false"
         inkscape:snap-to-guides="true"
         inkscape:snap-grids="false"
         inkscape:snap-others="false"
         inkscape:object-nodes="true"
         inkscape:snap-smooth-nodes="true"
         objecttolerance="10"
         guidetolerance="10"
         inkscape:snap-nodes="true"
         fit-margin-top="0"
         fit-margin-left="0"
         fit-margin-right="0"
         fit-margin-bottom="0"
         units="px">
        <sodipodi:guide
             position="53.963,163.75"
             orientation="0,1"
             id="guide4926"
             inkscape:label=""
             inkscape:color="rgb(0,0,255)" />
        <sodipodi:guide
             position="293.97,163.75"
             orientation="-0.98481,0.17365"
             id="guide4928"
             inkscape:label=""
             inkscape:color="rgb(0,0,255)" />
        <sodipodi:guide
             position="173.97,163.75"
             orientation="-0.98481,0.17365"
             id="guide4930"
             inkscape:label=""
             inkscape:color="rgb(0,0,255)" />
        <sodipodi:guide
             position="153.97,163.75"
             orientation="-0.98481,0.17365"
             id="guide4932"
             inkscape:label=""
             inkscape:color="rgb(0,0,255)" />
        <sodipodi:guide
             position="273.97,163.75"
             orientation="-0.98481,0.17365"
             id="guide4934"
             inkscape:label=""
             inkscape:color="rgb(0,0,255)" />
        <sodipodi:guide
             position="393.97,163.75"
             orientation="-0.98481,0.17365"
             id="guide4938"
             inkscape:label=""
             inkscape:color="rgb(0,0,255)" />
        <sodipodi:guide
             position="-61.567,313.76"
             orientation="0,1"
             id="guide4940"
             inkscape:label=""
             inkscape:color="rgb(0,0,255)" />
        <sodipodi:guide
             position="689.74,278.76"
             orientation="0,1"
             id="guide4942"
             inkscape:label=""
             inkscape:color="rgb(0,0,255)" />
        <sodipodi:guide
             position="-61.097,323.76"
             orientation="0,1"
             id="guide4950"
             inkscape:label=""
             inkscape:color="rgb(0,0,255)" />
        <sodipodi:guide
             position="-61.097,358.76"
             orientation="0,1"
             id="guide4952"
             inkscape:label=""
             inkscape:color="rgb(0,0,255)" />
        <sodipodi:guide
             position="53.963,163.75"
             orientation="-0.98481,0.17365"
             id="guide4959"
             inkscape:label=""
             inkscape:color="rgb(0,0,255)" />
        <sodipodi:guide
             position="363.97,163.75"
             orientation="-0.57358,0.81915"
             id="guide4153"
             inkscape:label=""
             inkscape:color="rgb(0,0,255)" />
        <sodipodi:guide
             position="-83.137,249.68"
             orientation="-0.57358,0.81915"
             id="guide4171"
             inkscape:label=""
             inkscape:color="rgb(0,0,255)" />
        <sodipodi:guide
             position="243.97,163.75"
             orientation="-0.57358,0.81915"
             id="guide4173"
             inkscape:label=""
             inkscape:color="rgb(0,0,255)" />
        <sodipodi:guide
             position="123.97,163.75"
             orientation="-0.57358,0.81915"
             id="guide4175"
             inkscape:label=""
             inkscape:color="rgb(0,0,255)" />
    </sodipodi:namedview>
    <metadata
         id="metadata7">
        <rdf:RDF>
            <cc:Work
                 rdf:about="">
                <dc:format>image/svg+xml</dc:format>
                <dc:type
                     rdf:resource="http://purl.org/dc/dcmitype/StillImage" />
                <dc:title />
            </cc:Work>
        </rdf:RDF>
    </metadata>
    <g
         inkscape:label="Layer 1"
         inkscape:groupmode="layer"
         id="layer1"
         transform="translate(-246.03,-382.61)">
        <text
             xml:space="preserve"
             style="font-style:normal;font-variant:normal;font-weight:normal;font-stretch:normal;font-size:222.70421px;line-height:125%;font-family:Karina;-inkscape-font-specification:Karina;letter-spacing:7.34927px;word-spacing:0px;fill:#585041;fill-opacity:1;stroke:none;stroke-width:1px;stroke-linecap:butt;stroke-linejoin:miter;stroke-opacity:1"
             x="937.23792"
             y="674.44946"
             id="text4162"
             sodipodi:linespacing="125%"><tspan
                 sodipodi:role="line"
                 id="tspan4164"
                 x="937.23792"
                 y="674.44946"
                 style="font-style:normal;font-variant:normal;font-weight:100;font-stretch:normal;font-family:'Century Gothic', CenturyGothic, AppleGothic, sans-serif;-inkscape-font-specification:sans-serif;letter-spacing:0.5em;fill:#585041;fill-opacity:1;stroke:none;stroke-opacity:1">TIMOTHY AUSTEN</tspan></text>
        <g
             id="g3407"
             transform="matrix(1.23565,0,0,1.23565,435.592,-938.187)">
            <path
                 sodipodi:nodetypes="cc"
                 style="color:#000000;clip-rule:nonzero;display:inline;overflow:visible;visibility:visible;opacity:1;isolation:auto;mix-blend-mode:normal;color-interpolation:sRGB;color-interpolation-filters:linearRGB;solid-color:#000000;solid-opacity:1;fill:none;fill-opacity:1;fill-rule:nonzero;stroke:#585041;stroke-width:1.00002;stroke-linecap:round;stroke-linejoin:round;stroke-miterlimit:4;stroke-dasharray:none;stroke-dashoffset:0;stroke-opacity:1;marker:none;color-rendering:auto;image-rendering:auto;shape-rendering:auto;text-rendering:auto;enable-background:accumulate"
                 d="m -11.3939,1094.25 -50.96,289.01"
                 id="path4166-6"
                 inkscape:connector-curvature="0" />
            <path
                 sodipodi:nodetypes="cc"
                 inkscape:connector-curvature="0"
                 id="path4168-0"
                 d="m -108.225,1165.62 467.735,0"
                 style="color:#000000;clip-rule:nonzero;display:inline;overflow:visible;visibility:visible;opacity:1;isolation:auto;mix-blend-mode:normal;color-interpolation:sRGB;color-interpolation-filters:linearRGB;solid-color:#000000;solid-opacity:1;fill:none;fill-opacity:1;fill-rule:nonzero;stroke:#585041;stroke-width:0.995682;stroke-linecap:round;stroke-linejoin:round;stroke-miterlimit:4;stroke-dasharray:none;stroke-dashoffset:0;stroke-opacity:1;marker:none;color-rendering:auto;image-rendering:auto;shape-rendering:auto;text-rendering:auto;enable-background:accumulate" />
            <path
                 style="color:#000000;clip-rule:nonzero;display:inline;overflow:visible;visibility:visible;opacity:1;isolation:auto;mix-blend-mode:normal;color-interpolation:sRGB;color-interpolation-filters:linearRGB;solid-color:#000000;solid-opacity:1;fill:none;fill-opacity:1;fill-rule:nonzero;stroke:#585041;stroke-width:1.039437;stroke-linecap:round;stroke-linejoin:round;stroke-miterlimit:4;stroke-dasharray:none;stroke-dashoffset:0;stroke-opacity:1;marker:none;color-rendering:auto;image-rendering:auto;shape-rendering:auto;text-rendering:auto;enable-background:accumulate"
                 d="m -146.964,1199.38 506.679,0"
                 id="path4170-4"
                 inkscape:connector-curvature="0"
                 sodipodi:nodetypes="cc" />
            <path
                 inkscape:connector-curvature="0"
                 id="path4172-0"
                 d="m 88.7061,1090.54 -50.96,289.01"
                 style="color:#000000;clip-rule:nonzero;display:inline;overflow:visible;visibility:visible;opacity:1;isolation:auto;mix-blend-mode:normal;color-interpolation:sRGB;color-interpolation-filters:linearRGB;solid-color:#000000;solid-opacity:1;fill:none;fill-opacity:1;fill-rule:nonzero;stroke:#585041;stroke-width:1.00002;stroke-linecap:round;stroke-linejoin:round;stroke-miterlimit:4;stroke-dasharray:none;stroke-dashoffset:0;stroke-opacity:1;marker:none;color-rendering:auto;image-rendering:auto;shape-rendering:auto;text-rendering:auto;enable-background:accumulate"
                 sodipodi:nodetypes="cc" />
            <path
                 sodipodi:nodetypes="cc"
                 style="color:#000000;clip-rule:nonzero;display:inline;overflow:visible;visibility:visible;opacity:1;isolation:auto;mix-blend-mode:normal;color-interpolation:sRGB;color-interpolation-filters:linearRGB;solid-color:#000000;solid-opacity:1;fill:none;fill-opacity:1;fill-rule:nonzero;stroke:#585041;stroke-width:1.00002;stroke-linecap:round;stroke-linejoin:round;stroke-miterlimit:4;stroke-dasharray:none;stroke-dashoffset:0;stroke-opacity:1;marker:none;color-rendering:auto;image-rendering:auto;shape-rendering:auto;text-rendering:auto;enable-background:accumulate"
                 d="m 221.426,1131.32 -42.86,244.52"
                 id="path4174-7"
                 inkscape:connector-curvature="0" />
            <path
                 inkscape:connector-curvature="0"
                 id="path4176-8"
                 d="m 321.526,1128.35 -45.02,256.39"
                 style="color:#000000;clip-rule:nonzero;display:inline;overflow:visible;visibility:visible;opacity:1;isolation:auto;mix-blend-mode:normal;color-interpolation:sRGB;color-interpolation-filters:linearRGB;solid-color:#000000;solid-opacity:1;fill:none;fill-opacity:1;fill-rule:nonzero;stroke:#585041;stroke-width:1.00002;stroke-linecap:round;stroke-linejoin:round;stroke-miterlimit:4;stroke-dasharray:none;stroke-dashoffset:0;stroke-opacity:1;marker:none;color-rendering:auto;image-rendering:auto;shape-rendering:auto;text-rendering:auto;enable-background:accumulate"
                 sodipodi:nodetypes="cc" />
            <path
                 inkscape:connector-curvature="0"
                 id="path4184-6"
                 d="m 364.546,1281.59 -146.23,102.44"
                 style="color:#000000;clip-rule:nonzero;display:inline;overflow:visible;visibility:visible;opacity:1;isolation:auto;mix-blend-mode:normal;color-interpolation:sRGB;color-interpolation-filters:linearRGB;solid-color:#000000;solid-opacity:1;fill:none;fill-opacity:1;fill-rule:nonzero;stroke:#585041;stroke-width:1.00002;stroke-linecap:round;stroke-linejoin:round;stroke-miterlimit:4;stroke-dasharray:none;stroke-dashoffset:0;stroke-opacity:1;marker:none;color-rendering:auto;image-rendering:auto;shape-rendering:auto;text-rendering:auto;enable-background:accumulate" />
            <circle
                 r="41.5875"
                 cx="-105.666"
                 cy="1239.32"
                 transform="matrix(0.999962,-0.00867,0.00867,0.999962,0,0)"
                 id="path4194-7"
                 style="color:#000000;clip-rule:nonzero;display:inline;overflow:visible;visibility:visible;opacity:1;isolation:auto;mix-blend-mode:normal;color-interpolation:sRGB;color-interpolation-filters:linearRGB;solid-color:#000000;solid-opacity:1;fill:none;fill-opacity:1;fill-rule:nonzero;stroke:#585041;stroke-width:1.000026;stroke-linecap:round;stroke-linejoin:round;stroke-miterlimit:4;stroke-dasharray:none;stroke-dashoffset:0;stroke-opacity:1;marker:none;color-rendering:auto;image-rendering:auto;shape-rendering:auto;text-rendering:auto;enable-background:accumulate" />
            <ellipse
                 cx="-962.731"
                 cy="910.696"
                 rx="38.4728"
                 ry="29.7469"
                 style="color:#000000;clip-rule:nonzero;display:inline;overflow:visible;visibility:visible;opacity:1;isolation:auto;mix-blend-mode:normal;color-interpolation:sRGB;color-interpolation-filters:linearRGB;solid-color:#000000;solid-opacity:1;fill:none;fill-opacity:1;fill-rule:nonzero;stroke:#585041;stroke-width:1.00003;stroke-linecap:round;stroke-linejoin:round;stroke-miterlimit:4;stroke-dasharray:none;stroke-dashoffset:0;stroke-opacity:1;marker:none;color-rendering:auto;image-rendering:auto;shape-rendering:auto;text-rendering:auto;enable-background:accumulate"
                 id="ellipse4196-5"
                 transform="matrix(0.697163,-0.716913,0.716913,0.697163,0,0)" />
            <ellipse
                 transform="matrix(0.697163,-0.716913,0.716913,0.697163,0,0)"
                 id="ellipse4198-3"
                 style="color:#000000;clip-rule:nonzero;display:inline;overflow:visible;visibility:visible;opacity:1;isolation:auto;mix-blend-mode:normal;color-interpolation:sRGB;color-interpolation-filters:linearRGB;solid-color:#000000;solid-opacity:1;fill:none;fill-opacity:1;fill-rule:nonzero;stroke:#585041;stroke-width:1.00003;stroke-linecap:round;stroke-linejoin:round;stroke-miterlimit:4;stroke-dasharray:none;stroke-dashoffset:0;stroke-opacity:1;marker:none;color-rendering:auto;image-rendering:auto;shape-rendering:auto;text-rendering:auto;enable-background:accumulate"
                 ry="29.7469"
                 rx="38.4728"
                 cy="996.996"
                 cx="-878.811" />
            <ellipse
                 cx="-796.6"
                 cy="1082.66"
                 rx="38.4728"
                 ry="29.7469"
                 style="color:#000000;clip-rule:nonzero;display:inline;overflow:visible;visibility:visible;opacity:1;isolation:auto;mix-blend-mode:normal;color-interpolation:sRGB;color-interpolation-filters:linearRGB;solid-color:#000000;solid-opacity:1;fill:none;fill-opacity:1;fill-rule:nonzero;stroke:#585041;stroke-width:1.00003;stroke-linecap:round;stroke-linejoin:round;stroke-miterlimit:4;stroke-dasharray:none;stroke-dashoffset:0;stroke-opacity:1;marker:none;color-rendering:auto;image-rendering:auto;shape-rendering:auto;text-rendering:auto;enable-background:accumulate"
                 id="ellipse4200-5"
                 transform="matrix(0.697163,-0.716913,0.716913,0.697163,0,0)" />
            <ellipse
                 ry="34.393"
                 rx="71.05"
                 cy="1201.44"
                 cx="235.706"
                 id="path4202-3"
                 style="color:#000000;clip-rule:nonzero;display:inline;overflow:visible;visibility:visible;opacity:1;isolation:auto;mix-blend-mode:normal;color-interpolation:sRGB;color-interpolation-filters:linearRGB;solid-color:#000000;solid-opacity:1;fill:none;fill-opacity:1;fill-rule:nonzero;stroke:#585041;stroke-width:1.00002;stroke-linecap:round;stroke-linejoin:round;stroke-miterlimit:4;stroke-dasharray:none;stroke-dashoffset:0;stroke-opacity:1;marker:none;color-rendering:auto;image-rendering:auto;shape-rendering:auto;text-rendering:auto;enable-background:accumulate" />
            <path
                 inkscape:connector-curvature="0"
                 id="path3372"
                 d="m 92.4351,1092.31 -118.213,57.26 -1.983,11.24 -18.099,0 a 4.00049,4.00049 0 1 0 0,8 l 24.812,0 2.438,-13.83 100.447,-48.64 -11.018,62.47 144.7679,0 c 32.566,0 56.121,5.14 70.508,12.83 14.386,7.69 19.476,16.98 17.623,27.48 l -14.401,81.61 c -0.61,3.46 -0.594,6.4 0.68,9.01 1.274,2.61 4.08,4.25 6.613,4.57 5.066,0.65 9.898,-1.58 14.942,-4.18 7.264,-3.74 13.192,-8.01 16.718,-10.64 l 5.034,7.95 -32.133,22.51 c -42.634,29.87 -64.252,35.87 -89.965,35.87 -10.11,0 -15.01,-2.85 -17.855,-8.31 -2.845,-5.46 -3.33,-14.64 -1.166,-26.89 l 1.681,-9.51 -7.914,5.54 c -46.469,32.54 -65.836,39.17 -94.7459,39.17 -7.296,0 -12.494,-3.33 -15.98,-9.42 -3.487,-6.09 -4.92,-15.14 -3.041,-25.78 l 1.675,-9.48 -7.902,5.5 c -11.113,7.75 -28.539,17.66 -46.346,25.54 -17.80599,7.88 -36.189,13.64 -48.406,13.64 -7.705,0 -12.896,-3.02 -16.299,-8.81 -3.403,-5.79 -4.769,-14.78 -2.742,-26.29 l 22.018,-124.91 -22.979,0 a 4.00049,4.00049 0 1 0 0,8 l 13.445,0 -20.363,115.52 0,0 c -2.253,12.79 -0.997,23.7 3.725,31.73 4.721,8.04 13.16,12.76 23.195,12.76 14.603,0 33.33701,-6.23 51.643,-14.33 14.972,-6.62 29.334,-14.49 40.539,-21.62 -0.305,8.6 1.36,16.33 4.894,22.5 4.684,8.19 12.97,13.45 22.924,13.45 28.5039,0 50.1349,-7.19 91.8789,-35.57 -0.82,9.06 -0.06,16.76 3.172,22.96 4.255,8.16 13.069,12.61 24.949,12.61 27.027,0 51.269,-6.99 94.555,-37.32 l 38.386,-26.89 -13.781,-21.77 -3.482,2.74 c 0,0 -9.977,7.79 -18.996,12.44 -4.51,2.32 -8.968,3.52 -10.274,3.36 -0.653,-0.1 -0.304,0.1 -0.426,-0.15 -0.122,-0.25 -0.439,-1.57 0,-4.11 l 0,0 14.401,-81.61 c 2.476,-14.04 -5.49,-27.25 -21.731,-35.93 -16.241,-8.68 -40.884,-13.77 -74.277,-13.77 l -135.2349,0 12.083,-68.5 z"
                 style="color:#000000;font-style:normal;font-variant:normal;font-weight:normal;font-stretch:normal;font-size:medium;line-height:normal;font-family:sans-serif;text-indent:0;text-align:start;text-decoration:none;text-decoration-line:none;text-decoration-style:solid;text-decoration-color:#000000;letter-spacing:normal;word-spacing:normal;text-transform:none;direction:ltr;block-progression:tb;writing-mode:lr-tb;baseline-shift:baseline;text-anchor:start;white-space:normal;clip-rule:nonzero;display:inline;overflow:visible;visibility:visible;opacity:1;isolation:auto;mix-blend-mode:normal;color-interpolation:sRGB;color-interpolation-filters:linearRGB;solid-color:#000000;solid-opacity:1;fill:#585041;fill-opacity:1;fill-rule:nonzero;stroke:none;stroke-width:8.00018;stroke-linecap:round;stroke-linejoin:miter;stroke-miterlimit:4;stroke-dasharray:none;stroke-dashoffset:0;stroke-opacity:1;marker:none;color-rendering:auto;image-rendering:auto;shape-rendering:auto;text-rendering:auto;enable-background:accumulate" />
            <path
                 inkscape:connector-curvature="0"
                 id="path3385"
                 d="m 69.4161,1199.82 111.4599,0 c 27.9,0 26.78,10 26.78,10 -62.01,11.75 -104.57,49.14 -125.3599,79.61 -12.35,7.7 -31.82,17.8 -29.3,3.5 z"
                 style="color:#000000;clip-rule:nonzero;display:inline;overflow:visible;visibility:visible;opacity:1;isolation:auto;mix-blend-mode:normal;color-interpolation:sRGB;color-interpolation-filters:linearRGB;solid-color:#000000;solid-opacity:1;fill:none;fill-opacity:1;fill-rule:nonzero;stroke:#585041;stroke-width:8.00018;stroke-linecap:round;stroke-linejoin:miter;stroke-miterlimit:4;stroke-dasharray:none;stroke-dashoffset:0;stroke-opacity:1;marker:none;color-rendering:auto;image-rendering:auto;shape-rendering:auto;text-rendering:auto;enable-background:accumulate" />
            <path
                 inkscape:connector-curvature="0"
                 id="path3362"
                 d="m 201.486,1244.82 -9.63,54.61 c 0,0 -24.84,27.5 -17.86,-12.1 7.46,-42.36 27.49,-42.51 27.49,-42.51 z"
                 style="color:#000000;clip-rule:nonzero;display:inline;overflow:visible;visibility:visible;opacity:1;isolation:auto;mix-blend-mode:normal;color-interpolation:sRGB;color-interpolation-filters:linearRGB;solid-color:#000000;solid-opacity:1;fill:none;fill-opacity:1;fill-rule:nonzero;stroke:#585041;stroke-width:8.00018;stroke-linecap:round;stroke-linejoin:miter;stroke-miterlimit:4;stroke-dasharray:none;stroke-dashoffset:0;stroke-opacity:1;marker:none;color-rendering:auto;image-rendering:auto;shape-rendering:auto;text-rendering:auto;enable-background:accumulate" />
            <path
                 sodipodi:nodetypes="csssssc"
                 inkscape:connector-curvature="0"
                 inkscape:original-d="m -30.8139,1164.82 -3.11,0 c -4.606,0 -101.3811,22.61 -103.0881,55.13 -5.38,102.49 158.0931,59.58 77.6461,-3.45 -3.338,-2.62 -4.607,-1.77 -2.698,-3.74 4.85,-5.02 20.37,-12.94 24.962,-12.94 l 3.661,0"
                 inkscape:path-effect="#path-effect3376"
                 id="path3374"
                 d="m -30.8139,1164.82 -3.11,0 c -21.2671,0 -43.1494,0.56 -62.6849,8.97 -9.7682,4.2 -18.7932,10.27 -25.9302,18.16 -7.138,7.88 -12.341,17.58 -14.473,28 -2.923,14.28 0.227,29.85 9.048,41.46 4.41,5.8 10.163,10.59 16.712,13.8 6.548,3.2 13.8855,4.8 21.1706,4.53 7.285,-0.28 14.5022,-2.44 20.6883,-6.3 6.186,-3.86 11.3191,-9.41 14.599,-15.92 3.2799,-6.51 4.6856,-13.97 3.9089,-21.22 -0.7766,-7.24 -3.7455,-14.26 -8.4807,-19.8 -1.003,-1.17 -2.103,-2.31 -2.698,-3.74 -0.5311,-1.27 -0.6195,-2.71 -0.3294,-4.06 0.2901,-1.35 0.9482,-2.6 1.8288,-3.66 1.7612,-2.12 4.3436,-3.43 7.0034,-4.16 5.3195,-1.45 10.9455,-1.06 16.4592,-1.06 l 3.661,0"
                 style="color:#000000;clip-rule:nonzero;display:inline;overflow:visible;visibility:visible;opacity:1;isolation:auto;mix-blend-mode:normal;color-interpolation:sRGB;color-interpolation-filters:linearRGB;solid-color:#000000;solid-opacity:1;fill:none;fill-opacity:1;fill-rule:nonzero;stroke:#585041;stroke-width:8.00018;stroke-linecap:round;stroke-linejoin:miter;stroke-miterlimit:4;stroke-dasharray:none;stroke-dashoffset:0;stroke-opacity:1;marker:none;color-rendering:auto;image-rendering:auto;shape-rendering:auto;text-rendering:auto;enable-background:accumulate" />
            <ellipse
                 style="color:#000000;clip-rule:nonzero;display:inline;overflow:visible;visibility:visible;opacity:1;isolation:auto;mix-blend-mode:normal;color-interpolation:sRGB;color-interpolation-filters:linearRGB;solid-color:#000000;solid-opacity:1;fill:none;fill-opacity:1;fill-rule:nonzero;stroke:#585041;stroke-width:1.00002;stroke-linecap:round;stroke-linejoin:round;stroke-miterlimit:4;stroke-dasharray:none;stroke-dashoffset:0;stroke-opacity:1;marker:none;color-rendering:auto;image-rendering:auto;shape-rendering:auto;text-rendering:auto;enable-background:accumulate"
                 id="ellipse3410"
                 cx="-53.7079"
                 cy="1200.55"
                 rx="71.05"
                 ry="34.393" />
            <path
                 inkscape:connector-curvature="0"
                 id="path3421"
                 d="m 126.52,1243.88 -0.402,0.81 0.386,0.82 0.866,0.16 0.311,-0.16 1.282,-0.99 0.01,0 0.01,0 0.258,-0.19 0.427,-0.81 -0.361,-0.82 -0.86,-0.19 -0.316,0.15 -0.283,0.21 -0.02,0 z m 7.706,-5.09 0.336,0.83 0.853,0.22 0.32,-0.14 1.654,-1.12 0.447,-0.79 -0.335,-0.84 -0.853,-0.21 -0.321,0.14 -1.652,1.12 z m -15.551,11.35 -0.377,0.83 0.41,0.8 0.868,0.14 0.307,-0.17 1.547,-1.28 0.379,-0.83 -0.412,-0.8 -0.868,-0.13 -0.306,0.17 z m 23.919,-16.85 0.286,0.86 0.839,0.26 0.327,-0.12 1.714,-1.01 0.496,-0.76 -0.286,-0.86 -0.836,-0.27 -0.328,0.12 -1.716,1.02 z m -31.459,23.56 -0.329,0.85 0.459,0.78 0.874,0.1 0.297,-0.19 1.471,-1.37 0.326,-0.85 -0.457,-0.78 -0.876,-0.1 -0.296,0.19 z m 40.1,-28.54 0.26,0.87 0.827,0.29 0.332,-0.11 1.502,-0.82 0.217,-0.11 0.541,-0.73 -0.234,-0.88 -0.818,-0.32 -0.333,0.1 -0.219,0.12 -0.03,0 -1.53,0.84 z m -46.216,34.48 -0.02,0 -1.073,1.13 -0.275,0.87 0.503,0.74 0.88,0 0.284,-0.21 1.071,-1.12 0.301,-0.3 0.302,-0.86 -0.48,-0.76 -0.878,0 -0.289,0.2 z m 55.095,-39.02 0.206,0.89 0.808,0.35 0.337,-0.1 1.799,-0.84 0.561,-0.71 -0.205,-0.89 -0.808,-0.35 -0.337,0.1 -1.798,0.84 z m -61.6659,46.13 -1.289,1.44 -0.02,0 -0.05,0.1 -0.221,0.89 0.55,0.71 0.879,0 0.271,-0.23 0.05,-0.1 1.266,-1.43 0.2499,-0.87 -0.5269,-0.73 -0.88,0 z m 70.7699,-50.15 0.149,0.9 0.785,0.4 0.339,-0.1 1.848,-0.72 0.606,-0.66 -0.15,-0.9 -0.786,-0.41 -0.34,0.1 -1.846,0.72 z m -77.2629,57.95 -1.242,1.59 -0.194,0.89 0.572,0.69 0.878,-0.1 0.264,-0.24 1.243,-1.59 0.193,-0.89 -0.572,-0.68 -0.878,0.1 z m 86.5769,-61.41 0.09,0.91 0.755,0.46 0.346,0 1.885,-0.59 0.647,-0.63 -0.09,-0.9 -0.754,-0.46 -0.345,0 -1.886,0.58 z m -92.6109,69.6 -1.138,1.68 -0.134,0.9 0.616,0.64 0.871,-0.13 0.248,-0.26 1.136,-1.67 0.136,-0.9 -0.616,-0.65 -0.873,0.14 z m 102.1029,-72.39 0.06,0.91 0.738,0.48 0.345,0 0.26,-0.1 0,0 1.623,-0.37 0.689,-0.58 -0.03,-0.91 -0.722,-0.52 -0.345,0 -1.625,0.38 -0.03,0 -0.296,0.1 z m -107.6199,80.97 -1.019,1.75 -0.07,0.91 0.66,0.6 0.862,-0.2 0.23,-0.27 1.018,-1.76 0.07,-0.91 -0.659,-0.59 -0.861,0.2 z m 117.2839,-83.1 0,0.91 0.7,0.54 0.345,0 0.409,-0.1 0.02,0 0.02,0 1.46,-0.22 0.728,-0.52 0.04,-0.91 -0.678,-0.57 -0.347,0 -1.497,0.22 -0.04,0 -0.446,0.1 z m -122.2019,92.06 -0.888,1.83 0,0.91 0.702,0.54 0.847,-0.27 0.207,-0.29 0.889,-1.82 0,-0.92 -0.703,-0.53 -0.845,0.26 z m 131.9119,-92.51 0.656,0.6 0.347,0 0.165,0 0.03,0 1.731,-0.12 0.762,-0.47 0.105,-0.91 -0.638,-0.62 -0.344,0 -1.763,0.13 -0.03,0 -0.196,0 -0.748,0.49 z m -136.1369,101.83 -0.483,1.2 0,0 -0.262,0.69 0.08,0.91 0.75,0.47 0.818,-0.35 0.181,-0.3 0.254,-0.68 0,0 0.474,-1.18 -0.06,-0.9 -0.738,-0.49 -0.824,0.33 z m 145.9079,-102.32 0.582,0.68 0.339,0.1 1.733,0 0.02,0 0,0 0.179,0 0.807,-0.37 0.203,-0.89 -0.564,-0.7 -0.339,-0.1 -0.202,0 -0.02,0 -1.759,0 -0.797,0.4 z m -149.3079,112.01 -0.146,0.48 0,0 -0.415,1.47 0.16,0.9 0.789,0.4 0.784,-0.43 0.154,-0.32 0.406,-1.46 0,0 0.139,-0.45 -0.137,-0.9 -0.779,-0.42 -0.793,0.41 z m 159.0689,-111.43 0.511,0.74 0.33,0.1 0.56,0.1 0.03,0 1.33,0.2 0.838,-0.29 0.288,-0.86 -0.493,-0.75 -0.327,-0.11 -1.355,-0.21 -0.03,0 -0.585,-0.1 -0.831,0.31 z m -161.4789,121.45 -0.256,1.45 0,0 -0.08,0.56 0.269,0.87 0.831,0.28 0.727,-0.52 0.113,-0.34 0.08,-0.53 0,0 0,0 0.251,-1.43 -0.245,-0.87 -0.825,-0.31 -0.74,0.5 z m 171.0759,-119.68 0.407,0.8 0.313,0.15 0.981,0.27 0.03,0 0.847,0.26 0.868,-0.16 0.404,-0.81 -0.383,-0.82 -0.308,-0.16 -0.874,-0.27 -0.03,0 -1.009,-0.28 -0.863,0.19 z m -172.1959,129.59 -0.07,0.35 -0.07,1.83 0,0 0,0.21 0.387,0.81 0.865,0.16 0.647,-0.63 0.06,-0.36 0,-0.17 0,0 0,0 0.07,-1.8 -0.365,-0.83 -0.859,-0.18 z m 181.4249,-126.41 0.277,0.86 0.284,0.2 0.865,0.4 0.03,0 0.846,0.43 0.879,0 0.527,-0.74 -0.25,-0.87 -0.275,-0.21 -0.877,-0.45 -0.03,0 -0.894,-0.41 -0.878,0 z m -181.1829,136.73 -0.02,0.36 0.203,1.65 0,0 0.06,0.36 0.515,0.74 0.88,0 0.536,-0.73 0,-0.36 -0.06,-0.37 -0.197,-1.61 -0.491,-0.75 -0.878,0 z m 189.7179,-131.95 0.122,0.9 0.245,0.25 0.435,0.31 0,0 1.108,0.86 0.865,0.16 0.648,-0.63 -0.09,-0.91 -0.235,-0.26 -1.137,-0.88 -0.03,0 -0.436,-0.31 -0.87,-0.12 z m -187.7079,142.05 0.05,0.36 0.339,1.08 0.01,0 0.297,0.84 0.639,0.62 0.867,-0.17 0.397,-0.82 -0.06,-0.36 -0.283,-0.8 -0.337,-1.08 -0.616,-0.64 -0.872,0.13 z m 195.0599,-134.73 0.178,0.31 1.119,1.3 0,0 0.136,0.18 0.801,0.37 0.77,-0.45 0.125,-0.91 -0.167,-0.31 -0.14,-0.18 -0.03,0 -1.146,-1.34 -0.813,-0.33 -0.755,0.48 z m -191.1109,144.19 0.114,0.34 0.225,0.41 0.02,0 0.791,1.31 0.747,0.47 0.819,-0.34 0.23,-0.89 -0.128,-0.33 -0.783,-1.31 0,0 -0.206,-0.37 -0.729,-0.5 -0.83,0.31 z m 194.4769,-139.97 0.14,0.33 1.028,1.56 0.01,0 0.04,0.1 0.751,0.47 0.817,-0.35 0.23,-0.88 -0.126,-0.33 -0.06,-0.1 -0.02,0 -1.038,-1.58 -0.767,-0.43 -0.806,0.38 z m -188.6199,148.33 0.193,0.3 1.175,1.26 0.03,0 0.185,0.19 0.84,0.26 0.713,-0.54 0.02,-0.92 -0.203,-0.28 -0.157,-0.16 -1.177,-1.26 -0.826,-0.3 -0.735,0.51 z m 193.3329,-139.7 0.07,0.35 0.449,1.12 0,0 0,0 0.241,0.69 0.642,0.61 0.865,-0.16 0.398,-0.82 -0.06,-0.36 -0.254,-0.72 -0.01,0 -0.464,-1.16 -0.665,-0.59 -0.859,0.2 z m -185.9879,145.57 0.121,0.9 0.244,0.26 0.892,0.63 0.03,0 0.734,0.49 0.875,0.1 0.601,-0.68 -0.157,-0.9 -0.253,-0.24 -0.704,-0.46 0,0 -0.02,0 -0.861,-0.62 -0.871,-0.12 z m 188.8269,-136.07 0,0.35 0.125,0.64 0,0 0,0 0.203,1.29 0.517,0.73 0.878,0 0.538,-0.73 0,-0.35 -0.209,-1.33 0,0 -0.13,-0.68 -0.541,-0.71 -0.88,0 z m -180.3539,141.17 0.277,0.87 0.285,0.2 0.637,0.29 0.03,0 1.163,0.49 0.878,-0.1 0.477,-0.77 -0.306,-0.85 -0.291,-0.19 -1.132,-0.48 -0.01,0 -0.02,0 -0.607,-0.28 -0.879,0 z m 181.3939,-131.25 -0.05,0.36 0.01,0.41 0,0 0,0 -0.01,1.56 0.391,0.81 0.863,0.16 0.647,-0.63 0.06,-0.35 0.01,-1.6 0,0 -0.01,-0.44 -0.414,-0.8 -0.87,-0.13 z m -172.173,134.72 0.407,0.81 0.313,0.15 0.706,0.19 0.03,0 1.195,0.29 0.858,-0.21 0.357,-0.84 -0.431,-0.79 -0.316,-0.14 -1.167,-0.28 -0.02,0 -0.01,0 -0.678,-0.19 -0.861,0.19 z m 171.641,-124.7 -0.103,0.35 -0.08,0.65 0,0 -0.197,1.31 0.269,0.86 0.833,0.29 0.725,-0.52 0.114,-0.34 0.2,-1.34 0,0 0.08,-0.68 -0.291,-0.86 -0.84,-0.26 z m -162.013,126.72 0.512,0.74 0.33,0.1 1.295,0.16 0.02,0 0.655,0.1 0.824,-0.33 0.244,-0.88 -0.53,-0.72 -0.333,-0.1 -0.629,-0.1 -0.01,0 -0.01,0 -1.268,-0.16 -0.831,0.31 z m 160.035,-116.5 -0.371,1.46 0,0 0,0 -0.131,0.46 0.16,0.9 0.787,0.39 0.786,-0.42 0.154,-0.32 0.136,-0.49 0,0 0.378,-1.48 -0.18,-0.89 -0.798,-0.38 -0.775,0.44 z m -150.234,117.25 0.58,0.68 0.34,0.1 0.236,0 0.02,0 1.726,0 0.79,-0.41 0.161,-0.9 -0.595,-0.67 -0.341,-0.1 -1.703,0 -0.02,0 -0.214,0 -0.799,0.4 z m 147.289,-107.61 -0.21,0.6 -0.489,1.29 0.08,0.91 0.751,0.47 0.817,-0.35 0.182,-0.31 0.496,-1.31 0,0 0.209,-0.59 -0.1,-0.91 -0.757,-0.45 -0.812,0.36 z m -137.445,107.32 0.658,0.6 0.343,0 1.956,-0.21 0.748,-0.49 0.08,-0.91 -0.657,-0.6 -0.345,0 -1.954,0.21 -0.749,0.49 z m 133.616,-97.98 -0.04,0.1 0,0 -0.01,0 -0.803,1.65 0,0.92 0.701,0.54 0.844,-0.27 0.21,-0.29 0.819,-1.69 0.02,0 0.06,-0.13 -0.03,-0.92 -0.723,-0.51 -0.835,0.3 z m -123.83,95.84 0,0.92 0.7,0.54 0.346,0 1.935,-0.37 0.708,-0.55 0,-0.91 -0.7,-0.55 -0.347,0 -1.935,0.37 z m 119.264,-86.86 -0.04,0.1 0,0 -0.951,1.63 -0.07,0.91 0.66,0.6 0.861,-0.2 0.23,-0.27 0.97,-1.67 0.02,0 0.04,-0.1 0.04,-0.91 -0.681,-0.57 -0.855,0.23 z m -109.665,84.86 0.06,0.91 0.739,0.48 0.345,0 1.905,-0.51 0.668,-0.6 -0.06,-0.92 -0.738,-0.48 -0.345,0 -1.905,0.52 z m 104.466,-76.25 -0.225,0.35 -0.02,0 -10e-4,0 -0.86,1.27 -0.135,0.9 0.615,0.65 0.872,-0.14 0.247,-0.25 0.883,-1.3 0.02,0 0.242,-0.38 0.104,-0.91 -0.637,-0.62 -0.868,0.16 z m -94.376,72.91 -0.626,0.6 0.09,0.91 0.754,0.46 0.346,0 0,0 0.03,0 1.861,-0.65 0.627,-0.65 -0.119,-0.9 -0.771,-0.43 -0.343,0.1 -1.861,0.65 z m 88.626,-64.68 -0.688,0.95 -0.01,0 -0.01,0 -0.481,0.61 -0.194,0.9 0.572,0.68 0.878,-0.1 0.264,-0.23 0.502,-0.65 0.02,0 0.711,-0.97 0.164,-0.9 -0.593,-0.67 -0.875,0.1 z m -79.986,61.94 0.149,0.9 0.783,0.4 0.341,-0.1 0.865,-0.33 0.03,0 0.965,-0.42 0.584,-0.69 -0.177,-0.89 -0.796,-0.38 -0.34,0.1 -0.936,0.4 0,0 -0.02,0 -0.836,0.33 z m 73.759,-54.08 -1.293,1.55 -0.221,0.89 0.55,0.7 0.879,0 0.27,-0.23 1.293,-1.55 0.223,-0.88 -0.55,-0.71 -0.879,0 z m -64.695,50.17 0.206,0.89 0.808,0.35 0.337,-0.1 1.798,-0.84 0.562,-0.71 -0.206,-0.89 -0.808,-0.35 -0.337,0.1 -1.798,0.84 z m 56.663,-41.23 -0.278,0.87 0.507,0.74 0.878,0 0.283,-0.21 1.387,-1.45 0.273,-0.88 -0.503,-0.74 -0.88,0 -0.282,0.21 z m -47.814,36.81 0.261,0.87 0.826,0.29 0.331,-0.11 1.746,-0.95 0.517,-0.75 -0.259,-0.87 -0.828,-0.29 -0.331,0.11 -1.744,0.95 z m 40.705,-29.79 -0.328,0.85 0.458,0.77 0.877,0.1 0.294,-0.19 1.469,-1.37 0.33,-0.85 -0.458,-0.77 -0.877,-0.1 -0.295,0.19 z m -32.084,24.89 0.312,0.85 0.847,0.25 0.322,-0.14 1.685,-1.06 0.473,-0.78 -0.31,-0.85 -0.847,-0.24 -0.323,0.13 -1.686,1.07 z m 24.925,-18.48 0,0 -0.28,0.23 -0.377,0.82 0.409,0.81 0.869,0.13 0.306,-0.17 0.304,-0.25 0.02,0 1.214,-1.07 0.353,-0.84 -0.435,-0.78 -0.873,-0.11 -0.3,0.18 z m -16.57,13.07 0.337,0.84 0.853,0.21 0.32,-0.14 1.604,-1.08 0.03,0 0.05,0 0.426,-0.81 -0.361,-0.82 -0.858,-0.19 -0.318,0.15 -0.02,0 -0.03,0 -1.578,1.07 z m 8.496,-6.61 -0.402,0.82 0.386,0.81 0.865,0.16 0.312,-0.16 1.584,-1.22 0.402,-0.82 -0.386,-0.81 -0.864,-0.16 -0.311,0.16 z"
                 style="color:#000000;font-style:normal;font-variant:normal;font-weight:normal;font-stretch:normal;font-size:medium;line-height:normal;font-family:sans-serif;text-indent:0;text-align:start;text-decoration:none;text-decoration-line:none;text-decoration-style:solid;text-decoration-color:#000000;letter-spacing:normal;word-spacing:normal;text-transform:none;direction:ltr;block-progression:tb;writing-mode:lr-tb;baseline-shift:baseline;text-anchor:start;white-space:normal;clip-rule:nonzero;display:inline;overflow:visible;visibility:visible;opacity:1;isolation:auto;mix-blend-mode:normal;color-interpolation:sRGB;color-interpolation-filters:linearRGB;solid-color:#000000;solid-opacity:1;fill:#585041;fill-opacity:1;fill-rule:nonzero;stroke:none;stroke-width:2.000748;stroke-linecap:round;stroke-linejoin:round;stroke-miterlimit:4;stroke-dasharray:2.000748, 8.002993;stroke-dashoffset:0;stroke-opacity:1;marker:none;color-rendering:auto;image-rendering:auto;shape-rendering:auto;text-rendering:auto;enable-background:accumulate" />
        </g>
    </g>
</svg>
