<?xml version="1.0" encoding="UTF-8" standalone="no"?>
<!-- Created with Inkscape (http://www.inkscape.org/) -->

<svg
     xmlns:dc="http://purl.org/dc/elements/1.1/"
     xmlns:cc="http://creativecommons.org/ns#"
     xmlns:rdf="http://www.w3.org/1999/02/22-rdf-syntax-ns#"
     xmlns:svg="http://www.w3.org/2000/svg"
     xmlns="http://www.w3.org/2000/svg"
     xmlns:xlink="http://www.w3.org/1999/xlink"
     xmlns:sodipodi="http://sodipodi.sourceforge.net/DTD/sodipodi-0.dtd"
     xmlns:inkscape="http://www.inkscape.org/namespaces/inkscape"
     width="3402.4"
     height="381.28"
     viewBox="0 0 3402.4 381.28"
     id="svg2"
     version="1.1"
     inkscape:version="0.91 r13725"
     sodipodi:docname="banner.svg">
    <defs
         id="defs4">
        <inkscape:path-effect
             effect="spiro"
             id="path-effect3376"
             is_visible="true" />
    </defs>
    <sodipodi:namedview
         id="base"
         pagecolor="#ffffff"
         bordercolor="#666666"
         borderopacity="1.0"
         inkscape:pageopacity="0.0"
         inkscape:pageshadow="2"
         inkscape:zoom="0.89674"
         inkscape:cx="244.3"
         inkscape:cy="150.97"
         inkscape:document-units="px"
         inkscape:current-layer="g3407"
         showgrid="false"
         inkscape:window-width="1920"
         inkscape:window-height="1140"
         inkscape:window-x="-8"
         inkscape:window-y="-8"
         inkscape:window-maximized="1"
         width="420mm"
         showguides="false"
         inkscape:guide-bbox="true"
         inkscape:snap-global="false"
         inkscape:snap-to-guides="true"
         inkscape:snap-grids="false"
         inkscape:snap-others="false"
         inkscape:object-nodes="true"
         inkscape:snap-smooth-nodes="true"
         objecttolerance="10"
         guidetolerance="10"
         inkscape:snap-nodes="true"
         fit-margin-top="0"
         fit-margin-left="0"
         fit-margin-right="0"
         fit-margin-bottom="0"
         units="px">
        <sodipodi:guide
             position="46.648,137.66"
             orientation="0,1"
             id="guide4926"
             inkscape:label=""
             inkscape:color="rgb(0,0,255)" />
        <sodipodi:guide
             position="286.66,137.66"
             orientation="-0.98481,0.17365"
             id="guide4928"
             inkscape:label=""
             inkscape:color="rgb(0,0,255)" />
        <sodipodi:guide
             position="166.66,137.66"
             orientation="-0.98481,0.17365"
             id="guide4930"
             inkscape:label=""
             inkscape:color="rgb(0,0,255)" />
        <sodipodi:guide
             position="146.66,137.66"
             orientation="-0.98481,0.17365"
             id="guide4932"
             inkscape:label=""
             inkscape:color="rgb(0,0,255)" />
        <sodipodi:guide
             position="266.66,137.66"
             orientation="-0.98481,0.17365"
             id="guide4934"
             inkscape:label=""
             inkscape:color="rgb(0,0,255)" />
        <sodipodi:guide
             position="386.66,137.66"
             orientation="-0.98481,0.17365"
             id="guide4938"
             inkscape:label=""
             inkscape:color="rgb(0,0,255)" />
        <sodipodi:guide
             position="-68.882,287.67"
             orientation="0,1"
             id="guide4940"
             inkscape:label=""
             inkscape:color="rgb(0,0,255)" />
        <sodipodi:guide
             position="682.43,252.67"
             orientation="0,1"
             id="guide4942"
             inkscape:label=""
             inkscape:color="rgb(0,0,255)" />
        <sodipodi:guide
             position="-68.412,297.67"
             orientation="0,1"
             id="guide4950"
             inkscape:label=""
             inkscape:color="rgb(0,0,255)" />
        <sodipodi:guide
             position="-68.412,332.67"
             orientation="0,1"
             id="guide4952"
             inkscape:label=""
             inkscape:color="rgb(0,0,255)" />
        <sodipodi:guide
             position="46.648,137.66"
             orientation="-0.98481,0.17365"
             id="guide4959"
             inkscape:label=""
             inkscape:color="rgb(0,0,255)" />
        <sodipodi:guide
             position="356.66,137.66"
             orientation="-0.57358,0.81915"
             id="guide4153"
             inkscape:label=""
             inkscape:color="rgb(0,0,255)" />
        <sodipodi:guide
             position="-90.452,223.59"
             orientation="-0.57358,0.81915"
             id="guide4171"
             inkscape:label=""
             inkscape:color="rgb(0,0,255)" />
        <sodipodi:guide
             position="236.66,137.66"
             orientation="-0.57358,0.81915"
             id="guide4173"
             inkscape:label=""
             inkscape:color="rgb(0,0,255)" />
        <sodipodi:guide
             position="116.66,137.66"
             orientation="-0.57358,0.81915"
             id="guide4175"
             inkscape:label=""
             inkscape:color="rgb(0,0,255)" />
    </sodipodi:namedview>
    <metadata
         id="metadata7">
        <rdf:RDF>
            <cc:Work
                 rdf:about="">
                <dc:format>image/svg+xml</dc:format>
                <dc:type
                     rdf:resource="http://purl.org/dc/dcmitype/StillImage" />
                <dc:title></dc:title>
            </cc:Work>
        </rdf:RDF>
    </metadata>
    <g
         inkscape:label="Layer 1"
         inkscape:groupmode="layer"
         id="layer1"
         transform="translate(-253.34,-408.71)">
        <g
             style="font-style:normal;font-variant:normal;font-weight:normal;font-stretch:normal;font-size:299.88849px;line-height:125%;font-family:Karina;-inkscape-font-specification:Karina;letter-spacing:50px;word-spacing:0px;fill:#585041;fill-opacity:1;stroke:none;stroke-width:1px;stroke-linecap:butt;stroke-linejoin:miter;stroke-opacity:1"
             id="text4162">
            <path
                 d="m 995.72,702.02 -14.35,0 0,-200.32 -42.61,0 0,-13.76 99.54,0 0,13.76 -42.58,0 0,200.32 z"
                 style="font-style:normal;font-variant:normal;font-weight:300;font-stretch:condensed;line-height:100%;font-family:'Open Sans';-inkscape-font-specification:'Open Sans Light Condensed';letter-spacing:80px;fill:#585041;fill-opacity:1;stroke:none;stroke-opacity:1"
                 id="path4175"
                 inkscape:connector-curvature="0" />
            <path
                 d="m 1144.4,702.02 0,-214.08 14.3,0 0,214.08 -14.3,0 z"
                 style="font-style:normal;font-variant:normal;font-weight:300;font-stretch:condensed;line-height:100%;font-family:'Open Sans';-inkscape-font-specification:'Open Sans Light Condensed';letter-spacing:80px;fill:#585041;fill-opacity:1;stroke:none;stroke-opacity:1"
                 id="path4177"
                 inkscape:connector-curvature="0" />
            <path
                 d="m 1356.3,702.02 -56.9,-194.9 -1.2,0 q 1.5,30.75 1.5,38.95 l 0,155.95 -13.8,0 0,-214.08 21.2,0 48.1,163.71 q 6.4,21.67 8.3,36.9 l 1.2,0 q 1.4,-10.84 9.1,-36.61 l 47.5,-164 22,0 0,214.08 -14.3,0 0,-154.78 q 0,-9.08 1.4,-39.83 l -1.1,0 -56.7,194.61 -16.3,0 z"
                 style="font-style:normal;font-variant:normal;font-weight:300;font-stretch:condensed;line-height:100%;font-family:'Open Sans';-inkscape-font-specification:'Open Sans Light Condensed';letter-spacing:80px;fill:#585041;fill-opacity:1;stroke:none;stroke-opacity:1"
                 id="path4179"
                 inkscape:connector-curvature="0" />
            <path
                 d="m 1686.6,594.68 q 0,53.16 -16,81.71 -15.8,28.56 -45.8,28.56 -30.3,0 -46,-28.7 -15.7,-28.85 -15.7,-81.86 0,-55.35 15.6,-82.44 15.5,-27.09 46.5,-27.09 29.9,0 45.6,28.56 15.8,28.4 15.8,81.26 z m -108.5,0 q 0,47.74 11.8,72.19 12,24.31 34.9,24.31 23,0 34.8,-24.16 12,-24.16 12,-72.34 0,-47.58 -11.7,-71.75 -11.7,-24.3 -34.7,-24.3 -23.6,0 -35.4,24.6 -11.7,24.45 -11.7,71.45 z"
                 style="font-style:normal;font-variant:normal;font-weight:300;font-stretch:condensed;line-height:100%;font-family:'Open Sans';-inkscape-font-specification:'Open Sans Light Condensed';letter-spacing:80px;fill:#585041;fill-opacity:1;stroke:none;stroke-opacity:1"
                 id="path4181"
                 inkscape:connector-curvature="0" />
            <path
                 d="m 1841.7,702.02 -14.4,0 0,-200.32 -42.6,0 0,-13.76 99.6,0 0,13.76 -42.6,0 0,200.32 z"
                 style="font-style:normal;font-variant:normal;font-weight:300;font-stretch:condensed;line-height:100%;font-family:'Open Sans';-inkscape-font-specification:'Open Sans Light Condensed';letter-spacing:80px;fill:#585041;fill-opacity:1;stroke:none;stroke-opacity:1"
                 id="path4183"
                 inkscape:connector-curvature="0" />
            <path
                 d="m 2093.8,702.02 -14.4,0 0,-105.29 -74.7,0 0,105.29 -14.3,0 0,-214.08 14.3,0 0,95.03 74.7,0 0,-95.03 14.4,0 0,214.08 z"
                 style="font-style:normal;font-variant:normal;font-weight:300;font-stretch:condensed;line-height:100%;font-family:'Open Sans';-inkscape-font-specification:'Open Sans Light Condensed';letter-spacing:80px;fill:#585041;fill-opacity:1;stroke:none;stroke-opacity:1"
                 id="path4185"
                 inkscape:connector-curvature="0" />
            <path
                 d="m 2247.8,598.49 34.9,-110.55 15.2,0 -43.2,130.47 0,83.61 -14.3,0 0,-83.61 -42.9,-130.47 15.2,0 35.1,110.55 z"
                 style="font-style:normal;font-variant:normal;font-weight:300;font-stretch:condensed;line-height:100%;font-family:'Open Sans';-inkscape-font-specification:'Open Sans Light Condensed';letter-spacing:80px;fill:#585041;fill-opacity:1;stroke:none;stroke-opacity:1"
                 id="path4187"
                 inkscape:connector-curvature="0" />
            <path
                 d="m 2618.9,702.02 -18.9,-77.61 -52,0 -18.6,77.61 -15,0 51.6,-214.08 14.8,0 52.7,214.08 -14.6,0 z m -22.3,-92.11 -18.9,-79.8 q -2.9,-13.47 -4.5,-25.48 -1.4,12.74 -4.1,25.48 l -18.3,79.8 45.8,0 z"
                 style="font-style:normal;font-variant:normal;font-weight:300;font-stretch:condensed;line-height:100%;font-family:'Open Sans';-inkscape-font-specification:'Open Sans Light Condensed';letter-spacing:80px;fill:#585041;fill-opacity:1;stroke:none;stroke-opacity:1"
                 id="path4189"
                 inkscape:connector-curvature="0" />
            <path
                 d="m 2839.9,487.94 0,144.52 q 0,72.49 -51.9,72.49 -25.9,0 -39.5,-18.75 -13.6,-18.74 -13.6,-53.74 l 0,-144.52 14.5,0 0,146.28 q 0,27.82 9.9,42.47 10.1,14.49 28.7,14.49 18.5,0 28,-14.49 9.5,-14.65 9.5,-43.05 l 0,-145.7 14.4,0 z"
                 style="font-style:normal;font-variant:normal;font-weight:300;font-stretch:condensed;line-height:100%;font-family:'Open Sans';-inkscape-font-specification:'Open Sans Light Condensed';letter-spacing:80px;fill:#585041;fill-opacity:1;stroke:none;stroke-opacity:1"
                 id="path4191"
                 inkscape:connector-curvature="0" />
            <path
                 d="m 3047.1,645.94 q 0,26.35 -14.6,42.75 -14.7,16.26 -37.2,16.26 -25.6,0 -41.2,-7.47 l 0,-15.52 q 7.6,4.24 18.9,6.73 11.3,2.49 22.3,2.49 16.4,0 26.9,-12.44 10.6,-12.45 10.6,-31.63 0,-17.72 -7.5,-28.12 -7.5,-10.39 -28.6,-20.79 -16.5,-8.35 -24.7,-16.11 -8.2,-7.91 -12.2,-18.3 -3.9,-10.4 -3.9,-24.89 0,-15.82 6.4,-28.12 6.5,-12.3 18,-19.04 11.6,-6.88 25.4,-6.88 12.4,0 22.5,2.78 10.3,2.79 16.1,6.01 l -5.5,13.76 q -16.3,-8.34 -33.1,-8.34 -15.8,0 -25.8,10.83 -9.8,10.69 -9.8,28.41 0,18.01 7.2,27.97 7.1,9.95 28.1,20.64 21.7,10.55 31.6,24.75 10.1,14.06 10.1,34.27 z"
                 style="font-style:normal;font-variant:normal;font-weight:300;font-stretch:condensed;line-height:100%;font-family:'Open Sans';-inkscape-font-specification:'Open Sans Light Condensed';letter-spacing:80px;fill:#585041;fill-opacity:1;stroke:none;stroke-opacity:1"
                 id="path4193"
                 inkscape:connector-curvature="0" />
            <path
                 d="m 3198.9,702.02 -14.4,0 0,-200.32 -42.6,0 0,-13.76 99.6,0 0,13.76 -42.6,0 0,200.32 z"
                 style="font-style:normal;font-variant:normal;font-weight:300;font-stretch:condensed;line-height:100%;font-family:'Open Sans';-inkscape-font-specification:'Open Sans Light Condensed';letter-spacing:80px;fill:#585041;fill-opacity:1;stroke:none;stroke-opacity:1"
                 id="path4195"
                 inkscape:connector-curvature="0" />
            <path
                 d="m 3425.1,702.02 -77.6,0 0,-214.08 77.6,0 0,13.76 -63.2,0 0,81.27 59.7,0 0,13.76 -59.7,0 0,91.52 63.2,0 0,13.77 z"
                 style="font-style:normal;font-variant:normal;font-weight:300;font-stretch:condensed;line-height:100%;font-family:'Open Sans';-inkscape-font-specification:'Open Sans Light Condensed';letter-spacing:80px;fill:#585041;fill-opacity:1;stroke:none;stroke-opacity:1"
                 id="path4197"
                 inkscape:connector-curvature="0" />
            <path
                 d="m 3655.7,702.02 -18.3,0 -81,-191.97 -1.2,0 q 1.8,19.91 1.8,38.36 l 0,153.61 -14.1,0 0,-214.08 18.6,0 80.4,189.77 0.9,0 q -1.2,-24.01 -1.2,-40.12 l 0,-149.65 14.1,0 0,214.08 z"
                 style="font-style:normal;font-variant:normal;font-weight:300;font-stretch:condensed;line-height:100%;font-family:'Open Sans';-inkscape-font-specification:'Open Sans Light Condensed';letter-spacing:80px;fill:#585041;fill-opacity:1;stroke:none;stroke-opacity:1"
                 id="path4199"
                 inkscape:connector-curvature="0" />
        </g>
        <a
             id="a4201"
             xlink:href="http://www.timothyausten.com"
             target="_top">
            <g
                 transform="matrix(1.2357,0,0,1.2357,435.59,-938.19)"
                 id="g3407">
                <rect
                     style="color:#000000;clip-rule:nonzero;display:inline;overflow:visible;visibility:visible;opacity:1;isolation:auto;mix-blend-mode:normal;color-interpolation:sRGB;color-interpolation-filters:linearRGB;solid-color:#000000;solid-opacity:1;fill:#000000;fill-opacity:0;fill-rule:nonzero;stroke:none;stroke-width:0.80926;stroke-linecap:round;stroke-linejoin:round;stroke-miterlimit:7.19481;stroke-dasharray:none;stroke-dashoffset:0;stroke-opacity:1;marker:none;color-rendering:auto;image-rendering:auto;shape-rendering:auto;text-rendering:auto;enable-background:accumulate"
                     id="rect4222"
                     width="518.74"
                     x="-143.33"
                     y="1096.3"
                     height="297.43" />
                <path
                     inkscape:connector-curvature="0"
                     id="path4166-6"
                     d="m -11.394,1094.2 -50.96,289.1"
                     style="color:#000000;clip-rule:nonzero;display:inline;overflow:visible;visibility:visible;opacity:1;isolation:auto;mix-blend-mode:normal;color-interpolation:sRGB;color-interpolation-filters:linearRGB;solid-color:#000000;solid-opacity:1;fill:none;fill-opacity:1;fill-rule:nonzero;stroke:#585041;stroke-width:1.00002;stroke-linecap:round;stroke-linejoin:round;stroke-miterlimit:4;stroke-dasharray:none;stroke-dashoffset:0;stroke-opacity:1;marker:none;color-rendering:auto;image-rendering:auto;shape-rendering:auto;text-rendering:auto;enable-background:accumulate"
                     sodipodi:nodetypes="cc" />
                <path
                     style="color:#000000;clip-rule:nonzero;display:inline;overflow:visible;visibility:visible;opacity:1;isolation:auto;mix-blend-mode:normal;color-interpolation:sRGB;color-interpolation-filters:linearRGB;solid-color:#000000;solid-opacity:1;fill:none;fill-opacity:1;fill-rule:nonzero;stroke:#585041;stroke-width:0.99568;stroke-linecap:round;stroke-linejoin:round;stroke-miterlimit:4;stroke-dasharray:none;stroke-dashoffset:0;stroke-opacity:1;marker:none;color-rendering:auto;image-rendering:auto;shape-rendering:auto;text-rendering:auto;enable-background:accumulate"
                     d="m -108.22,1165.6 467.73,0"
                     id="path4168-0"
                     inkscape:connector-curvature="0"
                     sodipodi:nodetypes="cc" />
                <path
                     sodipodi:nodetypes="cc"
                     inkscape:connector-curvature="0"
                     id="path4170-4"
                     d="m -146.96,1199.4 506.67,0"
                     style="color:#000000;clip-rule:nonzero;display:inline;overflow:visible;visibility:visible;opacity:1;isolation:auto;mix-blend-mode:normal;color-interpolation:sRGB;color-interpolation-filters:linearRGB;solid-color:#000000;solid-opacity:1;fill:none;fill-opacity:1;fill-rule:nonzero;stroke:#585041;stroke-width:1.03944;stroke-linecap:round;stroke-linejoin:round;stroke-miterlimit:4;stroke-dasharray:none;stroke-dashoffset:0;stroke-opacity:1;marker:none;color-rendering:auto;image-rendering:auto;shape-rendering:auto;text-rendering:auto;enable-background:accumulate" />
                <path
                     sodipodi:nodetypes="cc"
                     style="color:#000000;clip-rule:nonzero;display:inline;overflow:visible;visibility:visible;opacity:1;isolation:auto;mix-blend-mode:normal;color-interpolation:sRGB;color-interpolation-filters:linearRGB;solid-color:#000000;solid-opacity:1;fill:none;fill-opacity:1;fill-rule:nonzero;stroke:#585041;stroke-width:1.00002;stroke-linecap:round;stroke-linejoin:round;stroke-miterlimit:4;stroke-dasharray:none;stroke-dashoffset:0;stroke-opacity:1;marker:none;color-rendering:auto;image-rendering:auto;shape-rendering:auto;text-rendering:auto;enable-background:accumulate"
                     d="m 88.706,1090.5 -50.96,289"
                     id="path4172-0"
                     inkscape:connector-curvature="0" />
                <path
                     inkscape:connector-curvature="0"
                     id="path4174-7"
                     d="m 221.43,1131.3 -42.86,244.5"
                     style="color:#000000;clip-rule:nonzero;display:inline;overflow:visible;visibility:visible;opacity:1;isolation:auto;mix-blend-mode:normal;color-interpolation:sRGB;color-interpolation-filters:linearRGB;solid-color:#000000;solid-opacity:1;fill:none;fill-opacity:1;fill-rule:nonzero;stroke:#585041;stroke-width:1.00002;stroke-linecap:round;stroke-linejoin:round;stroke-miterlimit:4;stroke-dasharray:none;stroke-dashoffset:0;stroke-opacity:1;marker:none;color-rendering:auto;image-rendering:auto;shape-rendering:auto;text-rendering:auto;enable-background:accumulate"
                     sodipodi:nodetypes="cc" />
                <path
                     sodipodi:nodetypes="cc"
                     style="color:#000000;clip-rule:nonzero;display:inline;overflow:visible;visibility:visible;opacity:1;isolation:auto;mix-blend-mode:normal;color-interpolation:sRGB;color-interpolation-filters:linearRGB;solid-color:#000000;solid-opacity:1;fill:none;fill-opacity:1;fill-rule:nonzero;stroke:#585041;stroke-width:1.00002;stroke-linecap:round;stroke-linejoin:round;stroke-miterlimit:4;stroke-dasharray:none;stroke-dashoffset:0;stroke-opacity:1;marker:none;color-rendering:auto;image-rendering:auto;shape-rendering:auto;text-rendering:auto;enable-background:accumulate"
                     d="m 321.53,1128.3 -45.02,256.4"
                     id="path4176-8"
                     inkscape:connector-curvature="0" />
                <path
                     style="color:#000000;clip-rule:nonzero;display:inline;overflow:visible;visibility:visible;opacity:1;isolation:auto;mix-blend-mode:normal;color-interpolation:sRGB;color-interpolation-filters:linearRGB;solid-color:#000000;solid-opacity:1;fill:none;fill-opacity:1;fill-rule:nonzero;stroke:#585041;stroke-width:1.00002;stroke-linecap:round;stroke-linejoin:round;stroke-miterlimit:4;stroke-dasharray:none;stroke-dashoffset:0;stroke-opacity:1;marker:none;color-rendering:auto;image-rendering:auto;shape-rendering:auto;text-rendering:auto;enable-background:accumulate"
                     d="M 364.55,1281.6 218.32,1384"
                     id="path4184-6"
                     inkscape:connector-curvature="0" />
                <circle
                     style="color:#000000;clip-rule:nonzero;display:inline;overflow:visible;visibility:visible;opacity:1;isolation:auto;mix-blend-mode:normal;color-interpolation:sRGB;color-interpolation-filters:linearRGB;solid-color:#000000;solid-opacity:1;fill:none;fill-opacity:1;fill-rule:nonzero;stroke:#585041;stroke-width:1.00003;stroke-linecap:round;stroke-linejoin:round;stroke-miterlimit:4;stroke-dasharray:none;stroke-dashoffset:0;stroke-opacity:1;marker:none;color-rendering:auto;image-rendering:auto;shape-rendering:auto;text-rendering:auto;enable-background:accumulate"
                     id="path4194-7"
                     transform="matrix(0.99996,-0.00867,0.00867,0.99996,0,0)"
                     cy="1239.3"
                     cx="-105.67"
                     r="41.588" />
                <ellipse
                     transform="matrix(0.69716,-0.71691,0.71691,0.69716,0,0)"
                     id="ellipse4196-5"
                     style="color:#000000;clip-rule:nonzero;display:inline;overflow:visible;visibility:visible;opacity:1;isolation:auto;mix-blend-mode:normal;color-interpolation:sRGB;color-interpolation-filters:linearRGB;solid-color:#000000;solid-opacity:1;fill:none;fill-opacity:1;fill-rule:nonzero;stroke:#585041;stroke-width:1.00003;stroke-linecap:round;stroke-linejoin:round;stroke-miterlimit:4;stroke-dasharray:none;stroke-dashoffset:0;stroke-opacity:1;marker:none;color-rendering:auto;image-rendering:auto;shape-rendering:auto;text-rendering:auto;enable-background:accumulate"
                     ry="29.747"
                     rx="38.473"
                     cy="910.7"
                     cx="-962.73" />
                <ellipse
                     cx="-878.81"
                     cy="997"
                     rx="38.473"
                     ry="29.747"
                     style="color:#000000;clip-rule:nonzero;display:inline;overflow:visible;visibility:visible;opacity:1;isolation:auto;mix-blend-mode:normal;color-interpolation:sRGB;color-interpolation-filters:linearRGB;solid-color:#000000;solid-opacity:1;fill:none;fill-opacity:1;fill-rule:nonzero;stroke:#585041;stroke-width:1.00003;stroke-linecap:round;stroke-linejoin:round;stroke-miterlimit:4;stroke-dasharray:none;stroke-dashoffset:0;stroke-opacity:1;marker:none;color-rendering:auto;image-rendering:auto;shape-rendering:auto;text-rendering:auto;enable-background:accumulate"
                     id="ellipse4198-3"
                     transform="matrix(0.69716,-0.71691,0.71691,0.69716,0,0)" />
                <ellipse
                     transform="matrix(0.69716,-0.71691,0.71691,0.69716,0,0)"
                     id="ellipse4200-5"
                     style="color:#000000;clip-rule:nonzero;display:inline;overflow:visible;visibility:visible;opacity:1;isolation:auto;mix-blend-mode:normal;color-interpolation:sRGB;color-interpolation-filters:linearRGB;solid-color:#000000;solid-opacity:1;fill:none;fill-opacity:1;fill-rule:nonzero;stroke:#585041;stroke-width:1.00003;stroke-linecap:round;stroke-linejoin:round;stroke-miterlimit:4;stroke-dasharray:none;stroke-dashoffset:0;stroke-opacity:1;marker:none;color-rendering:auto;image-rendering:auto;shape-rendering:auto;text-rendering:auto;enable-background:accumulate"
                     ry="29.747"
                     rx="38.473"
                     cy="1082.7"
                     cx="-796.6" />
                <ellipse
                     style="color:#000000;clip-rule:nonzero;display:inline;overflow:visible;visibility:visible;opacity:1;isolation:auto;mix-blend-mode:normal;color-interpolation:sRGB;color-interpolation-filters:linearRGB;solid-color:#000000;solid-opacity:1;fill:none;fill-opacity:1;fill-rule:nonzero;stroke:#585041;stroke-width:1.00002;stroke-linecap:round;stroke-linejoin:round;stroke-miterlimit:4;stroke-dasharray:none;stroke-dashoffset:0;stroke-opacity:1;marker:none;color-rendering:auto;image-rendering:auto;shape-rendering:auto;text-rendering:auto;enable-background:accumulate"
                     id="path4202-3"
                     cx="235.71"
                     cy="1201.4"
                     rx="71.05"
                     ry="34.393" />
                <path
                     style="color:#000000;font-style:normal;font-variant:normal;font-weight:normal;font-stretch:normal;font-size:medium;line-height:normal;font-family:sans-serif;text-indent:0;text-align:start;text-decoration:none;text-decoration-line:none;text-decoration-style:solid;text-decoration-color:#000000;letter-spacing:normal;word-spacing:normal;text-transform:none;direction:ltr;block-progression:tb;writing-mode:lr-tb;baseline-shift:baseline;text-anchor:start;white-space:normal;clip-rule:nonzero;display:inline;overflow:visible;visibility:visible;opacity:1;isolation:auto;mix-blend-mode:normal;color-interpolation:sRGB;color-interpolation-filters:linearRGB;solid-color:#000000;solid-opacity:1;fill:#585041;fill-opacity:1;fill-rule:nonzero;stroke:none;stroke-width:8.00018;stroke-linecap:round;stroke-linejoin:miter;stroke-miterlimit:4;stroke-dasharray:none;stroke-dashoffset:0;stroke-opacity:1;marker:none;color-rendering:auto;image-rendering:auto;shape-rendering:auto;text-rendering:auto;enable-background:accumulate"
                     d="m 92.435,1092.3 -118.213,57.3 -1.983,11.2 -18.099,0 a 4.0005,4.0005 0 1 0 0,8 l 24.812,0 2.438,-13.8 100.447,-48.7 -11.018,62.5 144.771,0 c 32.56,0 56.12,5.2 70.51,12.8 14.38,7.7 19.47,17 17.62,27.5 l -14.4,81.6 c -0.61,3.5 -0.6,6.4 0.68,9 1.27,2.6 4.08,4.3 6.61,4.6 5.07,0.7 9.9,-1.6 14.94,-4.2 7.27,-3.7 13.19,-8 16.72,-10.6 l 5.03,7.9 -32.13,22.5 c -42.63,29.9 -64.25,35.9 -89.96,35.9 -10.11,0 -15.01,-2.8 -17.86,-8.3 -2.84,-5.5 -3.33,-14.6 -1.16,-26.9 l 1.68,-9.5 -7.92,5.5 c -46.47,32.6 -65.83,39.2 -94.744,39.2 -7.296,0 -12.494,-3.3 -15.98,-9.4 -3.487,-6.1 -4.92,-15.1 -3.041,-25.8 l 1.675,-9.5 -7.902,5.5 c -11.113,7.8 -28.539,17.7 -46.346,25.6 -17.8059,7.9 -36.189,13.6 -48.406,13.6 -7.705,0 -12.896,-3 -16.299,-8.8 -3.403,-5.8 -4.769,-14.8 -2.742,-26.3 l 22.018,-124.9 -22.979,0 a 4.0005,4.0005 0 1 0 0,8 l 13.445,0 -20.363,115.5 0,0 c -2.253,12.8 -0.997,23.7 3.725,31.8 4.721,8 13.16,12.7 23.195,12.7 14.603,0 33.3371,-6.2 51.643,-14.3 14.972,-6.6 29.334,-14.5 40.539,-21.6 -0.305,8.6 1.36,16.3 4.894,22.5 4.684,8.2 12.97,13.4 22.924,13.4 28.504,0 50.134,-7.2 91.884,-35.6 -0.82,9.1 -0.1,16.8 3.17,23 4.25,8.2 13.07,12.6 24.95,12.6 27.02,0 51.27,-7 94.55,-37.3 l 38.39,-26.9 -13.78,-21.8 -3.49,2.8 c 0,0 -9.97,7.8 -18.99,12.4 -4.51,2.3 -8.97,3.5 -10.28,3.4 -0.65,-0.1 -0.3,0.1 -0.42,-0.2 -0.12,-0.2 -0.44,-1.5 0,-4.1 l 0,0 14.4,-81.6 c 2.48,-14 -5.49,-27.2 -21.73,-35.9 -16.24,-8.7 -40.89,-13.8 -74.28,-13.8 l -135.234,0 12.083,-68.5 z"
                     id="path3372"
                     inkscape:connector-curvature="0" />
                <path
                     style="color:#000000;clip-rule:nonzero;display:inline;overflow:visible;visibility:visible;opacity:1;isolation:auto;mix-blend-mode:normal;color-interpolation:sRGB;color-interpolation-filters:linearRGB;solid-color:#000000;solid-opacity:1;fill:none;fill-opacity:1;fill-rule:nonzero;stroke:#585041;stroke-width:8.00018;stroke-linecap:round;stroke-linejoin:miter;stroke-miterlimit:4;stroke-dasharray:none;stroke-dashoffset:0;stroke-opacity:1;marker:none;color-rendering:auto;image-rendering:auto;shape-rendering:auto;text-rendering:auto;enable-background:accumulate"
                     d="m 69.416,1199.8 111.464,0 c 27.9,0 26.78,10 26.78,10 -62.01,11.8 -104.57,49.2 -125.364,79.6 -12.35,7.7 -31.82,17.8 -29.3,3.5 z"
                     id="path3385"
                     inkscape:connector-curvature="0" />
                <path
                     style="color:#000000;clip-rule:nonzero;display:inline;overflow:visible;visibility:visible;opacity:1;isolation:auto;mix-blend-mode:normal;color-interpolation:sRGB;color-interpolation-filters:linearRGB;solid-color:#000000;solid-opacity:1;fill:none;fill-opacity:1;fill-rule:nonzero;stroke:#585041;stroke-width:8.00018;stroke-linecap:round;stroke-linejoin:miter;stroke-miterlimit:4;stroke-dasharray:none;stroke-dashoffset:0;stroke-opacity:1;marker:none;color-rendering:auto;image-rendering:auto;shape-rendering:auto;text-rendering:auto;enable-background:accumulate"
                     d="m 201.49,1244.8 -9.63,54.6 c 0,0 -24.84,27.5 -17.86,-12.1 7.46,-42.3 27.49,-42.5 27.49,-42.5 z"
                     id="path3362"
                     inkscape:connector-curvature="0" />
                <path
                     style="color:#000000;clip-rule:nonzero;display:inline;overflow:visible;visibility:visible;opacity:1;isolation:auto;mix-blend-mode:normal;color-interpolation:sRGB;color-interpolation-filters:linearRGB;solid-color:#000000;solid-opacity:1;fill:none;fill-opacity:1;fill-rule:nonzero;stroke:#585041;stroke-width:8.00018;stroke-linecap:round;stroke-linejoin:miter;stroke-miterlimit:4;stroke-dasharray:none;stroke-dashoffset:0;stroke-opacity:1;marker:none;color-rendering:auto;image-rendering:auto;shape-rendering:auto;text-rendering:auto;enable-background:accumulate"
                     d="m -30.814,1164.8 -3.11,0 c -21.274,0 -43.164,0.6 -62.699,9 -9.767,4.2 -18.787,10.3 -25.927,18.2 -7.13,7.9 -12.33,17.6 -14.46,28 -2.93,14.3 0.23,29.9 9.07,41.5 4.42,5.9 10.18,10.7 16.75,13.9 6.56,3.2 13.917,4.8 21.218,4.5 7.301,-0.3 14.533,-2.5 20.727,-6.3 6.194,-3.9 11.328,-9.5 14.6,-16 3.272,-6.5 4.66,-14 3.857,-21.3 -0.803,-7.2 -3.807,-14.3 -8.578,-19.8 -1.001,-1.2 -2.098,-2.3 -2.698,-3.7 -0.541,-1.3 -0.638,-2.7 -0.354,-4.1 0.284,-1.3 0.938,-2.6 1.817,-3.6 1.757,-2.2 4.342,-3.5 7.006,-4.2 5.328,-1.5 10.968,-1.1 16.493,-1.1 l 3.661,0"
                     id="path3374"
                     inkscape:path-effect="#path-effect3376"
                     inkscape:original-d="m -30.814,1164.8 -3.11,0 c -4.606,0 -101.386,22.6 -103.086,55.2 -5.38,102.4 158.091,59.5 77.644,-3.5 -3.338,-2.6 -4.607,-1.8 -2.698,-3.7 4.85,-5.1 20.37,-13 24.962,-13 l 3.661,0"
                     inkscape:connector-curvature="0"
                     sodipodi:nodetypes="csssssc" />
                <ellipse
                     ry="34.393"
                     rx="71.05"
                     cy="1200.6"
                     cx="-53.708"
                     id="ellipse3410"
                     style="color:#000000;clip-rule:nonzero;display:inline;overflow:visible;visibility:visible;opacity:1;isolation:auto;mix-blend-mode:normal;color-interpolation:sRGB;color-interpolation-filters:linearRGB;solid-color:#000000;solid-opacity:1;fill:none;fill-opacity:1;fill-rule:nonzero;stroke:#585041;stroke-width:1.00002;stroke-linecap:round;stroke-linejoin:round;stroke-miterlimit:4;stroke-dasharray:none;stroke-dashoffset:0;stroke-opacity:1;marker:none;color-rendering:auto;image-rendering:auto;shape-rendering:auto;text-rendering:auto;enable-background:accumulate" />
                <path
                     style="color:#000000;font-style:normal;font-variant:normal;font-weight:normal;font-stretch:normal;font-size:medium;line-height:normal;font-family:sans-serif;text-indent:0;text-align:start;text-decoration:none;text-decoration-line:none;text-decoration-style:solid;text-decoration-color:#000000;letter-spacing:normal;word-spacing:normal;text-transform:none;direction:ltr;block-progression:tb;writing-mode:lr-tb;baseline-shift:baseline;text-anchor:start;white-space:normal;clip-rule:nonzero;display:inline;overflow:visible;visibility:visible;opacity:1;isolation:auto;mix-blend-mode:normal;color-interpolation:sRGB;color-interpolation-filters:linearRGB;solid-color:#000000;solid-opacity:1;fill:#585041;fill-opacity:1;fill-rule:nonzero;stroke:none;stroke-width:2.00075;stroke-linecap:round;stroke-linejoin:round;stroke-miterlimit:4;stroke-dasharray:2.00075, 8.00299;stroke-dashoffset:0;stroke-opacity:1;marker:none;color-rendering:auto;image-rendering:auto;shape-rendering:auto;text-rendering:auto;enable-background:accumulate"
                     d="m 126.52,1243.9 -0.4,0.8 0.38,0.8 0.87,0.2 0.31,-0.2 1.28,-1 0,0 0,0 0.26,-0.2 0.43,-0.8 -0.36,-0.8 -0.86,-0.2 -0.32,0.2 -0.28,0.2 0,0 z m 7.71,-5.1 0.33,0.8 0.86,0.2 0.32,-0.1 1.65,-1.1 0.45,-0.8 -0.34,-0.8 -0.85,-0.3 -0.32,0.2 -1.65,1.1 z m -15.56,11.3 -0.37,0.9 0.41,0.8 0.87,0.1 0.3,-0.2 1.55,-1.2 0.38,-0.9 -0.41,-0.8 -0.87,-0.1 -0.31,0.2 z m 23.92,-16.8 0.29,0.9 0.84,0.2 0.33,-0.1 1.71,-1 0.5,-0.8 -0.29,-0.8 -0.84,-0.3 -0.32,0.1 -1.72,1 z m -31.46,23.6 -0.32,0.8 0.45,0.8 0.88,0.1 0.3,-0.2 1.47,-1.4 0.32,-0.8 -0.45,-0.8 -0.88,-0.1 -0.3,0.2 z m 40.1,-28.6 0.26,0.9 0.83,0.3 0.33,-0.1 1.51,-0.9 0.21,-0.1 0.54,-0.7 -0.23,-0.9 -0.82,-0.3 -0.33,0.1 -0.22,0.1 0,0 -1.53,0.9 z m -46.21,34.5 0,0 -1.07,1.1 -0.28,0.9 0.5,0.7 0.88,0 0.29,-0.2 1.07,-1.1 0.3,-0.3 0.3,-0.9 -0.48,-0.7 -0.88,0 -0.29,0.2 z m 55.09,-39 0.21,0.9 0.81,0.3 0.33,-0.1 1.8,-0.8 0.56,-0.7 -0.2,-0.9 -0.81,-0.4 -0.34,0.1 -1.79,0.9 z m -61.662,46.1 -1.289,1.4 -0.02,0 -0.05,0.1 -0.221,0.9 0.55,0.7 0.879,0 0.271,-0.2 0.05,-0.1 1.266,-1.4 0.246,-0.9 -0.523,-0.7 -0.88,0 z m 70.772,-50.1 0.15,0.9 0.78,0.4 0.34,-0.1 1.85,-0.8 0.6,-0.6 -0.15,-0.9 -0.78,-0.4 -0.34,0.1 -1.85,0.7 z m -77.265,57.9 -1.242,1.6 -0.194,0.9 0.572,0.7 0.878,-0.1 0.264,-0.3 1.243,-1.6 0.193,-0.8 -0.572,-0.7 -0.878,0.1 z m 86.575,-61.4 0.1,0.9 0.76,0.5 0.34,0 1.89,-0.6 0.64,-0.7 -0.1,-0.9 -0.75,-0.4 -0.34,0 -1.89,0.6 z m -92.609,69.6 -1.138,1.7 -0.134,0.9 0.616,0.6 0.871,-0.1 0.248,-0.3 1.136,-1.6 0.136,-0.9 -0.616,-0.7 -0.873,0.1 z m 102.099,-72.4 0.1,0.9 0.74,0.5 0.35,0 0.26,-0.1 0,0 1.62,-0.4 0.69,-0.6 0,-0.9 -0.72,-0.5 -0.35,0 -1.62,0.4 0,0 -0.3,0.1 z m -107.616,81 -1.019,1.7 -0.07,0.9 0.66,0.6 0.862,-0.2 0.23,-0.2 1.018,-1.8 0.07,-0.9 -0.659,-0.6 -0.861,0.2 z m 117.286,-83.1 0,0.9 0.7,0.5 0.34,0 0.41,-0.1 0,0 0,0 1.46,-0.2 0.73,-0.5 0,-0.9 -0.68,-0.6 -0.35,0 -1.49,0.2 0,0 -0.45,0.1 z m -122.204,92 -0.888,1.9 0,0.9 0.702,0.5 0.847,-0.3 0.207,-0.2 0.889,-1.9 0,-0.9 -0.703,-0.5 -0.845,0.2 z m 131.914,-92.5 0.65,0.6 0.35,0 0.17,0 0,0 1.73,-0.1 0.76,-0.5 0.1,-0.9 -0.63,-0.6 -0.35,0 -1.76,0.1 0,0 -0.2,0 -0.75,0.5 z m -136.139,101.8 -0.483,1.3 0,0 -0.262,0.6 0.08,1 0.75,0.4 0.818,-0.3 0.181,-0.3 0.254,-0.7 0,0 0.474,-1.2 -0.06,-0.9 -0.738,-0.5 -0.824,0.4 z m 145.909,-102.3 0.58,0.7 0.34,0.1 1.73,0 0,0 0,0 0.18,0 0.81,-0.4 0.2,-0.8 -0.56,-0.8 -0.34,0 -0.2,0 0,0 -1.76,0 -0.8,0.4 z m -149.309,112 -0.146,0.5 0,0 -0.415,1.5 0.16,0.9 0.789,0.4 0.784,-0.4 0.154,-0.4 0.406,-1.4 0,0 0.139,-0.5 -0.137,-0.9 -0.779,-0.4 -0.793,0.4 z M 226.93,1211 l 0.51,0.7 0.33,0.1 0.56,0.1 0,0 1.33,0.2 0.84,-0.2 0.29,-0.9 -0.5,-0.8 -0.32,-0.1 -1.36,-0.2 0,0 -0.58,-0.1 -0.83,0.3 z m -161.479,121.5 -0.256,1.4 0,0 -0.08,0.6 0.269,0.8 0.831,0.3 0.727,-0.5 0.113,-0.3 0.08,-0.6 0,0 0,0 0.251,-1.4 -0.245,-0.9 -0.825,-0.3 -0.74,0.5 z m 171.079,-119.7 0.4,0.8 0.32,0.1 0.98,0.3 0,0 0.85,0.3 0.86,-0.2 0.41,-0.8 -0.39,-0.8 -0.3,-0.2 -0.88,-0.3 0,0 -1.01,-0.2 -0.86,0.2 z m -172.199,129.6 -0.07,0.3 -0.07,1.8 0,0 0,0.3 0.387,0.8 0.865,0.1 0.647,-0.6 0.06,-0.4 0,-0.1 0,0 0,0 0.07,-1.8 -0.365,-0.9 -0.859,-0.1 z M 245.76,1216 l 0.27,0.8 0.29,0.2 0.86,0.4 0,0 0.85,0.4 0.88,0 0.52,-0.7 -0.25,-0.9 -0.27,-0.2 -0.88,-0.4 0,0 -0.89,-0.4 -0.88,0 z m -181.187,136.7 -0.02,0.3 0.203,1.7 0,0 0.06,0.4 0.515,0.7 0.88,0 0.536,-0.7 0,-0.4 -0.06,-0.4 -0.197,-1.6 -0.491,-0.7 -0.878,0 z m 189.717,-132 0.12,0.9 0.25,0.3 0.43,0.3 0,0 1.11,0.9 0.87,0.1 0.64,-0.6 -0.1,-0.9 -0.23,-0.3 -1.14,-0.9 0,0 -0.43,-0.3 -0.87,-0.1 z m -187.707,142.1 0.05,0.3 0.339,1.1 0.01,0 0.297,0.9 0.639,0.6 0.867,-0.2 0.397,-0.8 -0.06,-0.4 -0.283,-0.8 -0.337,-1 -0.616,-0.7 -0.872,0.1 z m 195.057,-134.7 0.18,0.3 1.12,1.3 0,0 0.14,0.1 0.8,0.4 0.77,-0.4 0.12,-0.9 -0.16,-0.4 -0.14,-0.1 0,0 -1.15,-1.4 -0.81,-0.3 -0.76,0.5 z m -191.108,144.1 0.114,0.4 0.225,0.4 0.02,0 0.791,1.3 0.747,0.5 0.819,-0.4 0.23,-0.9 -0.128,-0.3 -0.783,-1.3 0,0 -0.206,-0.4 -0.729,-0.5 -0.83,0.3 z m 194.478,-139.9 0.14,0.3 1.03,1.6 0,0 0,0.1 0.75,0.4 0.82,-0.3 0.23,-0.9 -0.13,-0.3 -0.1,-0.1 0,0 -1.04,-1.6 -0.77,-0.4 -0.8,0.3 z m -188.621,148.3 0.193,0.3 1.175,1.3 0.03,0 0.185,0.2 0.84,0.2 0.713,-0.5 0.02,-0.9 -0.203,-0.3 -0.157,-0.2 -1.177,-1.2 -0.826,-0.3 -0.735,0.5 z m 193.331,-139.7 0.1,0.4 0.45,1.1 0,0 0,0 0.24,0.7 0.64,0.6 0.87,-0.2 0.4,-0.8 -0.1,-0.4 -0.26,-0.7 0,0 -0.46,-1.1 -0.67,-0.6 -0.86,0.2 z m -185.986,145.6 0.121,0.9 0.244,0.2 0.892,0.7 0.03,0 0.734,0.5 0.875,0.1 0.601,-0.7 -0.157,-0.9 -0.253,-0.3 -0.704,-0.4 0,0 -0.02,0 -0.861,-0.6 -0.871,-0.2 z m 188.826,-136.1 0,0.4 0.13,0.6 0,0 0,0 0.2,1.3 0.52,0.7 0.87,0 0.54,-0.7 0,-0.4 -0.21,-1.3 0,0 -0.13,-0.7 -0.54,-0.7 -0.88,0 z m -180.353,141.2 0.277,0.8 0.285,0.2 0.637,0.3 0.03,0 1.163,0.5 0.878,-0.1 0.477,-0.7 -0.306,-0.9 -0.291,-0.2 -1.132,-0.5 -0.01,0 -0.02,0 -0.607,-0.2 -0.879,0 z m 181.393,-131.3 -0.1,0.4 0,0.4 0,0 0,0 0,1.6 0.39,0.8 0.87,0.1 0.64,-0.6 0.1,-0.4 0,-1.6 0,0 0,-0.4 -0.41,-0.8 -0.87,-0.1 z m -172.17,134.7 0.4,0.9 0.32,0.1 0.7,0.2 0,0 1.2,0.3 0.86,-0.2 0.35,-0.9 -0.43,-0.8 -0.31,-0.1 -1.17,-0.3 0,0 0,0 -0.68,-0.2 -0.86,0.2 z m 171.64,-124.7 -0.1,0.4 -0.1,0.6 0,0 -0.2,1.4 0.27,0.8 0.83,0.3 0.73,-0.5 0.11,-0.4 0.2,-1.3 0,0 0.1,-0.7 -0.29,-0.8 -0.84,-0.3 z m -162.01,126.8 0.51,0.7 0.33,0.1 1.29,0.2 0,0 0.66,0.1 0.82,-0.4 0.25,-0.8 -0.53,-0.8 -0.34,-0.1 -0.63,-0.1 0,0 0,0 -1.26,-0.1 -0.84,0.3 z m 160.03,-116.5 -0.37,1.4 0,0 0,0 -0.13,0.5 0.16,0.9 0.79,0.4 0.78,-0.4 0.16,-0.4 0.13,-0.5 0,0 0.38,-1.4 -0.18,-0.9 -0.8,-0.4 -0.77,0.4 z m -150.23,117.2 0.58,0.7 0.34,0.1 0.23,0 0,0 1.73,0 0.79,-0.4 0.16,-0.9 -0.6,-0.7 -0.34,-0.1 -1.7,0 0,0 -0.21,0 -0.8,0.4 z m 147.29,-107.6 -0.21,0.6 -0.49,1.3 0.1,0.9 0.75,0.5 0.81,-0.4 0.19,-0.3 0.49,-1.3 0,0 0.21,-0.6 -0.1,-0.9 -0.76,-0.4 -0.81,0.3 z m -137.45,107.3 0.66,0.6 0.34,0 1.96,-0.2 0.75,-0.5 0.1,-0.9 -0.66,-0.6 -0.35,0 -1.95,0.2 -0.75,0.5 z m 133.62,-98 0,0.1 0,0 0,0 -0.81,1.7 0,0.9 0.71,0.6 0.84,-0.3 0.21,-0.3 0.82,-1.7 0,0 0.1,-0.1 0,-0.9 -0.72,-0.6 -0.84,0.3 z m -123.83,95.9 0,0.9 0.7,0.5 0.34,0 1.94,-0.3 0.71,-0.6 0,-0.9 -0.7,-0.5 -0.35,0 -1.94,0.3 z m 119.26,-86.9 0,0.1 0,0 -0.95,1.7 -0.1,0.9 0.66,0.6 0.86,-0.2 0.23,-0.3 0.97,-1.7 0,0 0,-0.1 0,-0.9 -0.68,-0.6 -0.85,0.3 z m -109.66,84.9 0.1,0.9 0.74,0.5 0.34,0 1.91,-0.5 0.66,-0.6 -0.1,-1 -0.73,-0.4 -0.35,0 -1.9,0.5 z m 104.46,-76.3 -0.22,0.4 0,0 0,0 -0.86,1.3 -0.14,0.9 0.62,0.6 0.87,-0.1 0.25,-0.3 0.88,-1.3 0,0 0.24,-0.4 0.1,-0.9 -0.63,-0.6 -0.87,0.2 z m -94.37,72.9 -0.63,0.6 0.1,1 0.75,0.4 0.35,0 0,0 0,0 1.86,-0.6 0.63,-0.7 -0.12,-0.9 -0.77,-0.4 -0.34,0.1 -1.87,0.6 z m 88.62,-64.6 -0.69,0.9 0,0 0,0 -0.48,0.6 -0.19,0.9 0.57,0.7 0.88,-0.1 0.26,-0.2 0.51,-0.7 0,0 0.71,-0.9 0.16,-0.9 -0.59,-0.7 -0.88,0.1 z m -79.98,61.9 0.15,0.9 0.78,0.4 0.34,-0.1 0.86,-0.3 0,0 0.97,-0.4 0.58,-0.7 -0.17,-0.9 -0.8,-0.4 -0.34,0.1 -0.94,0.4 0,0 0,0 -0.83,0.3 z m 73.76,-54.1 -1.3,1.6 -0.22,0.9 0.55,0.7 0.88,0 0.27,-0.3 1.29,-1.5 0.23,-0.9 -0.55,-0.7 -0.88,0 z m -64.7,50.2 0.21,0.9 0.8,0.3 0.34,-0.1 1.8,-0.8 0.56,-0.7 -0.2,-0.9 -0.81,-0.4 -0.34,0.1 -1.8,0.9 z m 56.66,-41.2 -0.27,0.8 0.5,0.8 0.88,0 0.28,-0.2 1.39,-1.5 0.27,-0.9 -0.5,-0.7 -0.88,0 -0.28,0.2 z m -47.81,36.8 0.26,0.8 0.83,0.3 0.33,-0.1 1.74,-0.9 0.52,-0.8 -0.26,-0.8 -0.83,-0.3 -0.33,0.1 -1.74,0.9 z m 40.7,-29.8 -0.32,0.8 0.45,0.8 0.88,0.1 0.3,-0.2 1.46,-1.4 0.33,-0.8 -0.45,-0.8 -0.88,-0.1 -0.3,0.2 z m -32.08,24.9 0.31,0.8 0.85,0.3 0.32,-0.2 1.69,-1 0.47,-0.8 -0.31,-0.9 -0.85,-0.2 -0.32,0.1 -1.69,1.1 z m 24.93,-18.5 0,0 -0.28,0.2 -0.38,0.8 0.41,0.9 0.87,0.1 0.3,-0.2 0.31,-0.2 0,0 1.21,-1.1 0.35,-0.8 -0.43,-0.8 -0.87,-0.1 -0.3,0.2 z m -16.57,13.1 0.33,0.8 0.86,0.2 0.32,-0.1 1.6,-1.1 0,0 0.1,0 0.43,-0.8 -0.37,-0.8 -0.85,-0.2 -0.32,0.1 0,0 0,0 -1.58,1.1 z m 8.49,-6.6 -0.4,0.8 0.39,0.8 0.86,0.1 0.31,-0.1 1.59,-1.2 0.4,-0.9 -0.39,-0.8 -0.86,-0.1 -0.31,0.1 z"
                     id="path3421"
                     inkscape:connector-curvature="0" />
            </g>
        </a>
        <text
             sodipodi:linespacing="125%"
             id="text4170"
             y="1196.1162"
             x="936.71027"
             style="font-style:normal;font-variant:normal;font-weight:normal;font-stretch:normal;font-size:299.88849px;line-height:125%;font-family:Karina;-inkscape-font-specification:Karina;letter-spacing:50px;word-spacing:0px;fill:#585041;fill-opacity:1;stroke:none;stroke-width:1px;stroke-linecap:butt;stroke-linejoin:miter;stroke-opacity:1"
             xml:space="preserve"><tspan
                 style="font-style:normal;font-variant:normal;font-weight:300;font-stretch:condensed;line-height:100%;font-family:'Open Sans';-inkscape-font-specification:'Open Sans Light Condensed';letter-spacing:80px;fill:#585041;fill-opacity:1;stroke:none;stroke-opacity:1"
                 y="1196.1162"
                 x="936.71027"
                 id="tspan4172"
                 sodipodi:role="line">TIMOTHY AUSTEN</tspan></text>
    </g>
</svg>
