<?xml version="1.0" encoding="UTF-8" standalone="no"?>
<!-- Created with Inkscape (http://www.inkscape.org/) -->

<svg
     xmlns:dc="http://purl.org/dc/elements/1.1/"
     xmlns:cc="http://creativecommons.org/ns#"
     xmlns:rdf="http://www.w3.org/1999/02/22-rdf-syntax-ns#"
     xmlns:svg="http://www.w3.org/2000/svg"
     xmlns="http://www.w3.org/2000/svg"
     xmlns:sodipodi="http://sodipodi.sourceforge.net/DTD/sodipodi-0.dtd"
     xmlns:inkscape="http://www.inkscape.org/namespaces/inkscape"
     width="3906.4"
     height="433.47"
     viewBox="0 0 3906.4 433.47"
     id="svg2"
     version="1.1"
     inkscape:version="0.91 r13725"
     sodipodi:docname="logo1.svg">
    <defs
         id="defs4" />
    <sodipodi:namedview
         id="base"
         pagecolor="#ffffff"
         bordercolor="#666666"
         borderopacity="1.0"
         inkscape:pageopacity="0.0"
         inkscape:pageshadow="2"
         inkscape:zoom="0.18215"
         inkscape:cx="3750.1"
         inkscape:cy="274.09"
         inkscape:document-units="px"
         inkscape:current-layer="layer1"
         showgrid="false"
         inkscape:window-width="1920"
         inkscape:window-height="1140"
         inkscape:window-x="-8"
         inkscape:window-y="-8"
         inkscape:window-maximized="1"
         width="420mm"
         showguides="false"
         inkscape:guide-bbox="true"
         inkscape:snap-global="false"
         inkscape:snap-to-guides="true"
         inkscape:snap-grids="false"
         inkscape:snap-others="false"
         inkscape:object-nodes="true"
         inkscape:snap-smooth-nodes="true"
         objecttolerance="10"
         guidetolerance="10"
         inkscape:snap-nodes="true"
         fit-margin-top="0"
         fit-margin-left="0"
         fit-margin-right="0"
         fit-margin-bottom="0"
         units="px">
        <sodipodi:guide
             position="53.963,163.75"
             orientation="0,1"
             id="guide4926"
             inkscape:label=""
             inkscape:color="rgb(0,0,255)" />
        <sodipodi:guide
             position="293.97,163.75"
             orientation="-0.98481,0.17365"
             id="guide4928"
             inkscape:label=""
             inkscape:color="rgb(0,0,255)" />
        <sodipodi:guide
             position="173.97,163.75"
             orientation="-0.98481,0.17365"
             id="guide4930"
             inkscape:label=""
             inkscape:color="rgb(0,0,255)" />
        <sodipodi:guide
             position="153.97,163.75"
             orientation="-0.98481,0.17365"
             id="guide4932"
             inkscape:label=""
             inkscape:color="rgb(0,0,255)" />
        <sodipodi:guide
             position="273.97,163.75"
             orientation="-0.98481,0.17365"
             id="guide4934"
             inkscape:label=""
             inkscape:color="rgb(0,0,255)" />
        <sodipodi:guide
             position="393.97,163.75"
             orientation="-0.98481,0.17365"
             id="guide4938"
             inkscape:label=""
             inkscape:color="rgb(0,0,255)" />
        <sodipodi:guide
             position="-61.567,313.76"
             orientation="0,1"
             id="guide4940"
             inkscape:label=""
             inkscape:color="rgb(0,0,255)" />
        <sodipodi:guide
             position="689.74,278.76"
             orientation="0,1"
             id="guide4942"
             inkscape:label=""
             inkscape:color="rgb(0,0,255)" />
        <sodipodi:guide
             position="-61.097,323.76"
             orientation="0,1"
             id="guide4950"
             inkscape:label=""
             inkscape:color="rgb(0,0,255)" />
        <sodipodi:guide
             position="-61.097,358.76"
             orientation="0,1"
             id="guide4952"
             inkscape:label=""
             inkscape:color="rgb(0,0,255)" />
        <sodipodi:guide
             position="53.963,163.75"
             orientation="-0.98481,0.17365"
             id="guide4959"
             inkscape:label=""
             inkscape:color="rgb(0,0,255)" />
        <sodipodi:guide
             position="363.97,163.75"
             orientation="-0.57358,0.81915"
             id="guide4153"
             inkscape:label=""
             inkscape:color="rgb(0,0,255)" />
        <sodipodi:guide
             position="-83.137,249.68"
             orientation="-0.57358,0.81915"
             id="guide4171"
             inkscape:label=""
             inkscape:color="rgb(0,0,255)" />
        <sodipodi:guide
             position="243.97,163.75"
             orientation="-0.57358,0.81915"
             id="guide4173"
             inkscape:label=""
             inkscape:color="rgb(0,0,255)" />
        <sodipodi:guide
             position="123.97,163.75"
             orientation="-0.57358,0.81915"
             id="guide4175"
             inkscape:label=""
             inkscape:color="rgb(0,0,255)" />
    </sodipodi:namedview>
    <metadata
         id="metadata7">
        <rdf:RDF>
            <cc:Work
                 rdf:about="">
                <dc:format>image/svg+xml</dc:format>
                <dc:type
                     rdf:resource="http://purl.org/dc/dcmitype/StillImage" />
                <dc:title></dc:title>
            </cc:Work>
        </rdf:RDF>
    </metadata>
    <g
         inkscape:label="Layer 1"
         inkscape:groupmode="layer"
         id="layer1"
         transform="translate(-246.03,-382.61)">
        <g
             id="g4180"
             transform="matrix(1.3567,0,0,1.3569,-87.86,-136.68)">
            <path
                 transform="translate(0,-435.83)"
                 sodipodi:nodetypes="cccscscsscscssccssscccsccscccsc"
                 inkscape:connector-curvature="0"
                 id="path4961"
                 d="m 445.93,827.7 -109.33,52.95 -2.21,12.54 -41.3,0 c -7.6,0 -6.97,-11.57 -6.97,-11.57 -29.43,5.89 -43.64,46.57 -10.87,46.57 l 52.96,0 -21.19,120.21 c -4.28,24.3 5.24,39.8 22.98,39.8 26.82,0 74.23,-24 97.04,-39.9 -4.01,22.7 5.71,39.9 22.96,39.9 29.56,0 50.34,-7.2 97.04,-39.9 -4.47,25.3 0.97,39.9 22.96,39.9 26.37,0 49.3,-6.5 92.26,-36.6 l 35.26,-24.7 -9.37,-14.8 c 0,0 -40.33,31.7 -36.1,7.7 l 14.4,-81.61 c 4.33,-24.54 -26.11,-45 -92.07,-45 l -140,0 z m -17.72,100.49 111.46,0 c 27.9,0 26.78,10 26.78,10 -62.01,11.75 -104.57,49.14 -125.36,79.61 -12.35,7.7 -31.82,17.8 -29.3,3.5 z m 132.07,45 -9.63,54.61 c 0,0 -24.84,27.5 -17.86,-12.1 7.46,-42.36 27.49,-42.51 27.49,-42.51 z"
                 style="color:#000000;display:inline;overflow:visible;visibility:visible;opacity:1;fill:none;fill-opacity:1;fill-rule:nonzero;stroke:#585041;stroke-width:5.89633;stroke-linecap:round;stroke-linejoin:miter;stroke-miterlimit:4;stroke-dasharray:none;stroke-dashoffset:0;stroke-opacity:1;marker:none;enable-background:accumulate" />
            <path
                 sodipodi:nodetypes="cc"
                 style="color:#000000;clip-rule:nonzero;display:inline;overflow:visible;visibility:visible;opacity:1;isolation:auto;mix-blend-mode:normal;color-interpolation:sRGB;color-interpolation-filters:linearRGB;solid-color:#000000;solid-opacity:1;fill:none;fill-opacity:1;fill-rule:nonzero;stroke:#585041;stroke-width:0.73704;stroke-linecap:round;stroke-linejoin:round;stroke-miterlimit:4;stroke-dasharray:none;stroke-dashoffset:0;stroke-opacity:1;marker:none;color-rendering:auto;image-rendering:auto;shape-rendering:auto;text-rendering:auto;enable-background:accumulate"
                 d="M 347.4,386.79 296.44,675.8"
                 id="path4166"
                 inkscape:connector-curvature="0" />
            <path
                 sodipodi:nodetypes="cc"
                 inkscape:connector-curvature="0"
                 id="path4168"
                 d="m 246.48,458.16 471.82,0"
                 style="color:#000000;clip-rule:nonzero;display:inline;overflow:visible;visibility:visible;opacity:1;isolation:auto;mix-blend-mode:normal;color-interpolation:sRGB;color-interpolation-filters:linearRGB;solid-color:#000000;solid-opacity:1;fill:none;fill-opacity:1;fill-rule:nonzero;stroke:#585041;stroke-width:0.73704;stroke-linecap:round;stroke-linejoin:round;stroke-miterlimit:4;stroke-dasharray:none;stroke-dashoffset:0;stroke-opacity:1;marker:none;color-rendering:auto;image-rendering:auto;shape-rendering:auto;text-rendering:auto;enable-background:accumulate" />
            <path
                 style="color:#000000;clip-rule:nonzero;display:inline;overflow:visible;visibility:visible;opacity:1;isolation:auto;mix-blend-mode:normal;color-interpolation:sRGB;color-interpolation-filters:linearRGB;solid-color:#000000;solid-opacity:1;fill:none;fill-opacity:1;fill-rule:nonzero;stroke:#585041;stroke-width:0.73704;stroke-linecap:round;stroke-linejoin:round;stroke-miterlimit:4;stroke-dasharray:none;stroke-dashoffset:0;stroke-opacity:1;marker:none;color-rendering:auto;image-rendering:auto;shape-rendering:auto;text-rendering:auto;enable-background:accumulate"
                 d="m 249.57,491.92 468.98,0"
                 id="path4170"
                 inkscape:connector-curvature="0"
                 sodipodi:nodetypes="cc" />
            <path
                 inkscape:connector-curvature="0"
                 id="path4172"
                 d="M 447.5,383.08 396.54,672.09"
                 style="color:#000000;clip-rule:nonzero;display:inline;overflow:visible;visibility:visible;opacity:1;isolation:auto;mix-blend-mode:normal;color-interpolation:sRGB;color-interpolation-filters:linearRGB;solid-color:#000000;solid-opacity:1;fill:none;fill-opacity:1;fill-rule:nonzero;stroke:#585041;stroke-width:0.73704;stroke-linecap:round;stroke-linejoin:round;stroke-miterlimit:4;stroke-dasharray:none;stroke-dashoffset:0;stroke-opacity:1;marker:none;color-rendering:auto;image-rendering:auto;shape-rendering:auto;text-rendering:auto;enable-background:accumulate"
                 sodipodi:nodetypes="cc" />
            <path
                 sodipodi:nodetypes="cc"
                 style="color:#000000;clip-rule:nonzero;display:inline;overflow:visible;visibility:visible;opacity:1;isolation:auto;mix-blend-mode:normal;color-interpolation:sRGB;color-interpolation-filters:linearRGB;solid-color:#000000;solid-opacity:1;fill:none;fill-opacity:1;fill-rule:nonzero;stroke:#585041;stroke-width:0.73704;stroke-linecap:round;stroke-linejoin:round;stroke-miterlimit:4;stroke-dasharray:none;stroke-dashoffset:0;stroke-opacity:1;marker:none;color-rendering:auto;image-rendering:auto;shape-rendering:auto;text-rendering:auto;enable-background:accumulate"
                 d="M 580.22,423.86 537.36,668.38"
                 id="path4174"
                 inkscape:connector-curvature="0" />
            <path
                 inkscape:connector-curvature="0"
                 id="path4176"
                 d="M 680.32,420.89 635.3,677.28"
                 style="color:#000000;clip-rule:nonzero;display:inline;overflow:visible;visibility:visible;opacity:1;isolation:auto;mix-blend-mode:normal;color-interpolation:sRGB;color-interpolation-filters:linearRGB;solid-color:#000000;solid-opacity:1;fill:none;fill-opacity:1;fill-rule:nonzero;stroke:#585041;stroke-width:0.73704;stroke-linecap:round;stroke-linejoin:round;stroke-miterlimit:4;stroke-dasharray:none;stroke-dashoffset:0;stroke-opacity:1;marker:none;color-rendering:auto;image-rendering:auto;shape-rendering:auto;text-rendering:auto;enable-background:accumulate"
                 sodipodi:nodetypes="cc" />
            <path
                 inkscape:connector-curvature="0"
                 id="path4184"
                 d="M 723.34,574.13 577.11,676.57"
                 style="color:#000000;clip-rule:nonzero;display:inline;overflow:visible;visibility:visible;opacity:1;isolation:auto;mix-blend-mode:normal;color-interpolation:sRGB;color-interpolation-filters:linearRGB;solid-color:#000000;solid-opacity:1;fill:none;fill-opacity:1;fill-rule:nonzero;stroke:#585041;stroke-width:0.73704;stroke-linecap:round;stroke-linejoin:round;stroke-miterlimit:4;stroke-dasharray:none;stroke-dashoffset:0;stroke-opacity:1;marker:none;color-rendering:auto;image-rendering:auto;shape-rendering:auto;text-rendering:auto;enable-background:accumulate" />
            <ellipse
                 cx="-100.08"
                 cy="537.13"
                 rx="27.263"
                 ry="18.492"
                 transform="matrix(0.75022,-0.66119,0.66119,0.75022,0,0)"
                 id="path4194"
                 style="color:#000000;clip-rule:nonzero;display:inline;overflow:visible;visibility:visible;opacity:1;isolation:auto;mix-blend-mode:normal;color-interpolation:sRGB;color-interpolation-filters:linearRGB;solid-color:#000000;solid-opacity:1;fill:none;fill-opacity:1;fill-rule:nonzero;stroke:#585041;stroke-width:0.73704;stroke-linecap:round;stroke-linejoin:round;stroke-miterlimit:4;stroke-dasharray:none;stroke-dashoffset:0;stroke-opacity:1;marker:none;color-rendering:auto;image-rendering:auto;shape-rendering:auto;text-rendering:auto;enable-background:accumulate" />
            <ellipse
                 cx="-205.41"
                 cy="674.71"
                 rx="38.473"
                 ry="29.747"
                 style="color:#000000;clip-rule:nonzero;display:inline;overflow:visible;visibility:visible;opacity:1;isolation:auto;mix-blend-mode:normal;color-interpolation:sRGB;color-interpolation-filters:linearRGB;solid-color:#000000;solid-opacity:1;fill:none;fill-opacity:1;fill-rule:nonzero;stroke:#585041;stroke-width:0.73705;stroke-linecap:round;stroke-linejoin:round;stroke-miterlimit:4;stroke-dasharray:none;stroke-dashoffset:0;stroke-opacity:1;marker:none;color-rendering:auto;image-rendering:auto;shape-rendering:auto;text-rendering:auto;enable-background:accumulate"
                 id="ellipse4196"
                 transform="matrix(0.69716,-0.71691,0.71691,0.69716,0,0)" />
            <ellipse
                 transform="matrix(0.69716,-0.71691,0.71691,0.69716,0,0)"
                 id="ellipse4198"
                 style="color:#000000;clip-rule:nonzero;display:inline;overflow:visible;visibility:visible;opacity:1;isolation:auto;mix-blend-mode:normal;color-interpolation:sRGB;color-interpolation-filters:linearRGB;solid-color:#000000;solid-opacity:1;fill:none;fill-opacity:1;fill-rule:nonzero;stroke:#585041;stroke-width:0.73705;stroke-linecap:round;stroke-linejoin:round;stroke-miterlimit:4;stroke-dasharray:none;stroke-dashoffset:0;stroke-opacity:1;marker:none;color-rendering:auto;image-rendering:auto;shape-rendering:auto;text-rendering:auto;enable-background:accumulate"
                 ry="29.747"
                 rx="38.473"
                 cy="761.01"
                 cx="-121.49" />
            <ellipse
                 cx="-39.279"
                 cy="846.68"
                 rx="38.473"
                 ry="29.747"
                 style="color:#000000;clip-rule:nonzero;display:inline;overflow:visible;visibility:visible;opacity:1;isolation:auto;mix-blend-mode:normal;color-interpolation:sRGB;color-interpolation-filters:linearRGB;solid-color:#000000;solid-opacity:1;fill:none;fill-opacity:1;fill-rule:nonzero;stroke:#585041;stroke-width:0.73705;stroke-linecap:round;stroke-linejoin:round;stroke-miterlimit:4;stroke-dasharray:none;stroke-dashoffset:0;stroke-opacity:1;marker:none;color-rendering:auto;image-rendering:auto;shape-rendering:auto;text-rendering:auto;enable-background:accumulate"
                 id="ellipse4200"
                 transform="matrix(0.69716,-0.71691,0.71691,0.69716,0,0)" />
            <ellipse
                 ry="34.393"
                 rx="71.05"
                 cy="493.98"
                 cx="594.5"
                 id="path4202"
                 style="color:#000000;clip-rule:nonzero;display:inline;overflow:visible;visibility:visible;opacity:1;isolation:auto;mix-blend-mode:normal;color-interpolation:sRGB;color-interpolation-filters:linearRGB;solid-color:#000000;solid-opacity:1;fill:none;fill-opacity:1;fill-rule:nonzero;stroke:#585041;stroke-width:0.73704;stroke-linecap:round;stroke-linejoin:round;stroke-miterlimit:4;stroke-dasharray:none;stroke-dashoffset:0;stroke-opacity:1;marker:none;color-rendering:auto;image-rendering:auto;shape-rendering:auto;text-rendering:auto;enable-background:accumulate" />
            <path
                 inkscape:connector-curvature="0"
                 id="path4162"
                 d="m 617.43,523.8 c -3.64,2.33 4.63,5.48 0.98,0.78 -0.15,-0.44 -0.66,-0.52 -0.98,-0.78 z m -8.42,-9.5 c -4.48,-2.34 0.3,5.31 1.34,1.44 0.1,-0.73 -0.95,-0.97 -1.34,-1.44 z m -11.18,-6.52 c -5.03,-2.93 -2.19,4.2 0.63,1.03 -0.27,-0.29 -0.1,-0.98 -0.63,-1.03 z m 25.74,28.73 c -4.11,1.03 2.52,6.63 0.79,1.2 0,-0.57 -0.49,-0.82 -0.79,-1.2 z m 1.53,13.78 c -3.07,3.5 3.09,5.25 1.04,0.39 -0.1,-0.54 -0.69,-0.26 -1.04,-0.39 z m -40.98,-46.28 c -4.31,-1.55 -2.92,3.41 0.53,1.72 0.51,-0.63 0.18,-1.5 -0.53,-1.72 z m 40.41,60.18 c -3.25,2.13 1.29,6.13 1.11,1.28 0.1,-0.78 -0.37,-1.18 -1.11,-1.28 z M 570.3,503.26 c -5.42,-1.32 -1.78,4.53 0.59,0.95 0.28,-0.48 -0.39,-0.63 -0.59,-0.95 z m 51.37,74.57 c -3.54,1.73 0.5,6.25 0.94,1.33 0.1,-0.77 -0.24,-1.11 -0.94,-1.33 z m -65.42,-73.16 c -5.54,-0.42 -1.17,4.74 0.68,0.87 0.19,-0.49 -0.44,-0.58 -0.68,-0.87 z m 60.84,86.34 c -4.21,1.89 0.49,6.16 0.74,0.81 0.21,-0.51 -0.49,-0.54 -0.74,-0.81 z m -74.61,-83.16 c -5.64,0.23 -0.47,4.76 0.82,0.67 0.14,-0.54 -0.53,-0.46 -0.82,-0.67 z m 68.61,95.77 c -3.73,0.9 -0.95,6.17 0.56,1.63 0.35,-0.67 0.1,-1.3 -0.56,-1.63 z m -81.9,-91.17 c -4.29,0.35 -2,4.57 0.8,1.49 0.62,-0.61 -0.16,-1.4 -0.8,-1.49 z m 74.84,103.21 c -4.5,1.15 -0.44,6.17 0.6,0.93 0.25,-0.47 -0.4,-0.62 -0.6,-0.93 z m -87.71,-97.45 c -5.51,1.23 0.35,4.84 0.94,0.61 0,-0.54 -0.63,-0.4 -0.94,-0.61 z m 79.66,108.87 c -4.02,0.4 -1.68,6.07 0.43,1.54 0.31,-0.7 0.14,-1.09 -0.43,-1.54 z M 503.99,524.96 c -5.33,1.61 0.66,4.82 1.01,0.55 0,-0.56 -0.68,-0.36 -1.01,-0.55 z m 82.27,112.96 c -4.72,3.07 2.03,4.45 1.1,0.26 -0.15,-0.53 -0.73,-0.18 -1.1,-0.26 z m -94.1,-105.31 c -5.26,2.04 1.08,4.74 1.02,0.46 -0.1,-0.53 -0.68,-0.3 -1.02,-0.46 z m 84.5,115.42 c -4.89,2.84 1.79,4.48 1.07,0.27 -0.12,-0.52 -0.72,-0.17 -1.07,-0.27 z M 480.93,541.06 c -5.14,2.34 1.37,4.67 1.04,0.4 -0.1,-0.54 -0.69,-0.27 -1.04,-0.4 z m 87.92,114.34 c -5.05,2.5 1.5,4.65 1.06,0.38 -0.1,-0.54 -0.71,-0.26 -1.06,-0.38 z M 470.27,550.21 c -4.99,2.61 1.62,4.66 1.06,0.38 -0.1,-0.52 -0.71,-0.25 -1.06,-0.38 z m 87.88,114.13 c -5.2,2.2 1.24,4.7 1.03,0.43 0,-0.55 -0.68,-0.29 -1.03,-0.43 z M 460.22,560.03 c -4.73,2.93 1.89,4.48 1.09,0.26 -0.13,-0.55 -0.72,-0.18 -1.09,-0.26 z m 86.66,112.52 c -5.32,1.89 0.95,4.77 1,0.48 0,-0.54 -0.67,-0.31 -1,-0.48 z M 450.82,570.52 c -4.53,3.38 2.3,4.22 1.1,0.13 -0.18,-0.53 -0.73,-0.1 -1.1,-0.13 z m 84.25,109.45 c -5.36,1.51 0.62,4.79 0.97,0.55 0,-0.55 -0.65,-0.37 -0.97,-0.55 z m -91.95,-98.45 c -4.53,1.02 -0.64,6.15 0.58,0.95 0.27,-0.47 -0.39,-0.63 -0.58,-0.95 z m 79.66,104.95 c -5.55,1.06 0.19,4.88 0.91,0.64 0.1,-0.54 -0.6,-0.43 -0.91,-0.64 z m -87.41,-93.29 c -4.38,1.34 -0.28,6.12 0.59,0.92 0.26,-0.47 -0.38,-0.62 -0.59,-0.92 z m 74.59,98.79 c -4.7,0.48 -1.51,4.6 0.99,1.34 0,-0.78 -0.33,-1.08 -0.99,-1.34 z m -81.34,-86.5 c -4.29,1.74 0.35,6.18 0.72,0.84 0.2,-0.5 -0.48,-0.56 -0.72,-0.84 z m 68.12,90.76 c -5.67,-0.1 -0.61,4.87 0.8,0.8 0.13,-0.51 -0.54,-0.53 -0.8,-0.8 z m -73.7,-77.9 c -4.07,2.23 1.1,6.08 0.82,0.76 0.13,-0.53 -0.54,-0.51 -0.82,-0.76 z m 60.1,80.75 c -5.65,-0.69 -1.1,4.64 0.71,0.77 0.21,-0.5 -0.45,-0.52 -0.71,-0.77 z m -64.18,-67.34 c -3.77,2.67 1.81,5.89 0.9,0.65 0.1,-0.54 -0.6,-0.44 -0.9,-0.65 z m 50.37,68.34 c -5.42,-1.54 -1.99,4.47 0.54,0.97 0.29,-0.45 -0.36,-0.65 -0.54,-0.97 z m -52.55,-54.5 c -3.1,2.31 1.82,6.09 1.21,1.25 0.1,-0.81 -0.47,-1.25 -1.21,-1.25 z m 38.47,53.01 c -5.37,-2.17 -1.48,4.49 0.76,0.89 -0.32,-0.22 -0.26,-0.88 -0.76,-0.89 z M 417.13,659.6 c -2.51,3.85 3.82,4.81 1.07,0.27 -0.13,-0.53 -0.71,-0.18 -1.07,-0.27 z m 25.15,34.58 c -3.32,-2.99 -4.01,2.36 0,1.81 0.69,-0.48 0.57,-1.29 0,-1.81 z m -20.65,-21.23 c -4.01,1.66 3.89,6.02 0.83,0.85 -0.1,-0.43 -0.56,-0.56 -0.83,-0.85 z m 8.97,12.76 c -4.66,-4.02 -0.52,5.48 0.69,0.83 -0.19,-0.31 -0.45,-0.56 -0.69,-0.83 z"
                 style="color:#000000;font-style:normal;font-variant:normal;font-weight:normal;font-stretch:normal;font-size:medium;line-height:normal;font-family:sans-serif;text-indent:0;text-align:start;text-decoration:none;text-decoration-line:none;text-decoration-style:solid;text-decoration-color:#000000;letter-spacing:normal;word-spacing:normal;text-transform:none;direction:ltr;block-progression:tb;writing-mode:lr-tb;baseline-shift:baseline;text-anchor:start;white-space:normal;clip-rule:nonzero;display:inline;overflow:visible;visibility:visible;opacity:1;isolation:auto;mix-blend-mode:normal;color-interpolation:sRGB;color-interpolation-filters:linearRGB;solid-color:#000000;solid-opacity:1;fill:#585041;fill-opacity:1;fill-rule:nonzero;stroke:none;stroke-width:2;stroke-linecap:round;stroke-linejoin:round;stroke-miterlimit:4;stroke-dasharray:none;stroke-dashoffset:0;stroke-opacity:0.94118;marker:none;color-rendering:auto;image-rendering:auto;shape-rendering:auto;text-rendering:auto;enable-background:accumulate" />
        </g>
        <text
             xml:space="preserve"
             style="font-style:normal;font-variant:normal;font-weight:normal;font-stretch:normal;font-size:222.70421px;line-height:125%;font-family:Karina;-inkscape-font-specification:Karina;letter-spacing:7.34927px;word-spacing:0px;fill:#585041;fill-opacity:1;stroke:none;stroke-width:1px;stroke-linecap:butt;stroke-linejoin:miter;stroke-opacity:1"
             x="937.23792"
             y="674.44946"
             id="text4162"
             sodipodi:linespacing="125%"><tspan
                 sodipodi:role="line"
                 id="tspan4164"
                 x="937.23792"
                 y="674.44946"
                 style="font-style:normal;font-variant:normal;font-weight:100;font-stretch:normal;font-family:'Century Gothic', CenturyGothic, AppleGothic, sans-serif;-inkscape-font-specification:sans-serif;letter-spacing:0.5em;fill:#585041;fill-opacity:1;stroke:none;stroke-opacity:1">TIMOTHY AUSTEN</tspan></text>
    </g>
</svg>
