<?xml version="1.0" standalone="no"?>
<!DOCTYPE svg PUBLIC "-//W3C//DTD SVG 1.1//EN" "http://www.w3.org/Graphics/SVG/1.1/DTD/svg11.dtd">

<svg width="100%" height="100%" version="1.1" xmlns="http://www.w3.org/2000/svg">

<path  id="drain" style="fill:#007070;fill-opacity:1"
       transform="translate(0 0)"
	 d="m 300,300 c -18,-3 -20,-26 -14,-39 12,-25 44,-30 66,-16 31,19 36,64 16,93 -27,39 -83,44 -120,17 -46,-34 -51,-102 -17,-146 41,-54 120,-59 172,-18 62,48 67,139 19,199 -55,68 -158,74 -225,19 -76,-62 -83,-177 -21,-252 69,-83.3 197,-89.8 279,-21 91,76 98,216 39,325 C 604,371 595,199 483,106 382,21.3 226,29 140,132 c -75.8,91 -68,233 26,310 82,67 209,60 277,-24 59,-74 52,-186 -23,-245 -64,-50 -162,-44 -212,22 -42,55 -36,138 21,180 46,33 114,27 147,-21 25,-36 19,-90 -20,-114 -26,-16 -66,-11 -81,19 -8,17 -3,41 18,48 21,8 31,-22 18,-19 -8,2 -4,13 -11,12 z"><!--comment-->
       <animateTransform
          attributeType="xml"
          attributeName="transform"
          type="rotate"
          from="0 325 300"
          to="360 325 300"
          dur="0.5s"
          repeatCount="indefinite"/>
</path>
<g id="smileyandtext" transform="translate(0,0)">
    <animateMotion path="M 630,350 C 560,440 430,490 320,480 220,480 120,420 53,340 -3.8,270 -30,170 -16,81 -13,58 1.4,31 23,22 c 26,-12 63,-5 87,13 20,16 40,45 30,75 0,20 -30,40 -54,40 C 60,160 27,150 11,130 -4.2,110 -4.1,73 11,53 25,35 53,29 75,34 c 22,6 45,26 45,48 10,18 -10,48 -28,48 C 69,140 37,140 24,120 12,100 15,70 29,55 42,42 67,41 83,49 95,54 110,67 110,78 100,98 83,120 64,120 51,120 38,100 38,88 39,74 56,60 70,60 82,60 96,72 96,83 95,97 77,110 64,110 51,110 37,90 40,77 42,65 58,60 70,59 c 10,-1 24,3 30,12 10,14 -5,29 -17,39 -13,10 -38,10 -51,0 C 21,100 21,82 28,69 36,54 57,46 74,47 c 15,1 36,10 36,23 10,20 0,40 -14,60 -13,10 -43,20 -67,10 -17,0 -36,0 -50,-20 C -29,110 -38,95 -34,81 -29,65 -10,57 4.8,50 27,40 54,30 77,38 c 12,5 23,17 23,30 0,18 -13,42 -29,42 C 50,120 27,110 16,93 8.7,82 7.1,63 16,53 28,39 56,38 72,47 82,52 91,65 86,75 82,85 64,86 54,81 46,76 38,62 44,55 50,47 68,52 73,61 79,71 73,88 63,93 48,100 26,92 14,80 5.2,70 1.1,53 6.5,42 47,-42 160,-81 250,-89 c 140,-11 310,4 390,116 60,93 50,233 -10,323 z" begin="0s" dur="10s" repeatCount="indefinite" 
fill="freeze"/>
    <text id="speech" x="0" y="0" style="font-family:sans-serif;font-size:xx-large">I'm going down the drain!</text>
    <g id="smiley">
        <animateMotion path="m 200,-100 -90,86 -81,-86 81,-90 z" begin="0s" dur="3s" repeatCount="indefinite" fill="freeze"/><!-- This randomizes the distance between the speech bubble and the face just a bit. -->
        <circle cx="230" cy="200" r="107"  id="head"     style="fill:#ffcc00;stroke:#000000;stroke-width:10"></circle>
        <circle cx="160" cy="170" r="11.6" id="eyeleft"  style="fill:#000000"></circle>
        <circle cx="275" cy="170" r="11.6" id="eyeright" style="fill:#000000"></circle>
        <circle cx="215" cy="223" r="50"   id="mouth"    style="fill:#000000">
            <animate id="mouthanim1" attributeType="XML" attributeName="r" from="10" to="50" dur="0.2s" begin="0; mouthanim2.end" />
	    <animate id="mouthanim2" attributeType="XML" attributeName="r" from="50" to="10" dur="0.2s" begin="mouthanim1.end" /></circle>
    </g>
</g>
</svg>



