<?xml version="1.0" encoding="UTF-8" standalone="no"?>
<!-- Created with Inkscape (http://www.inkscape.org/) -->

<svg
   xmlns:dc="http://purl.org/dc/elements/1.1/"
   xmlns:cc="http://creativecommons.org/ns#"
   xmlns:rdf="http://www.w3.org/1999/02/22-rdf-syntax-ns#"
   xmlns:svg="http://www.w3.org/2000/svg"
   xmlns="http://www.w3.org/2000/svg"
   xmlns:sodipodi="http://sodipodi.sourceforge.net/DTD/sodipodi-0.dtd"
   xmlns:inkscape="http://www.inkscape.org/namespaces/inkscape"
   viewBox="0 0 1000 1000"
   style="width:100%;height:100%;position:fixed;top:0;left:0;bottom:0;right:0;"
   id="svg2"
   version="1.1"
   inkscape:version="0.47 r22583"
   sodipodi:docname="runner-girl.svg">
  <defs
     id="defs4">
    <inkscape:perspective
       sodipodi:type="inkscape:persp3d"
       inkscape:vp_x="0 : 526.18109 : 1"
       inkscape:vp_y="0 : 1000 : 0"
       inkscape:vp_z="744.09448 : 526.18109 : 1"
       inkscape:persp3d-origin="372.04724 : 350.78739 : 1"
       id="perspective10" />
    <inkscape:perspective
       id="perspective3812"
       inkscape:persp3d-origin="0.5 : 0.33333333 : 1"
       inkscape:vp_z="1 : 0.5 : 1"
       inkscape:vp_y="0 : 1000 : 0"
       inkscape:vp_x="0 : 0.5 : 1"
       sodipodi:type="inkscape:persp3d" />
    <inkscape:perspective
       id="perspective3834"
       inkscape:persp3d-origin="0.5 : 0.33333333 : 1"
       inkscape:vp_z="1 : 0.5 : 1"
       inkscape:vp_y="0 : 1000 : 0"
       inkscape:vp_x="0 : 0.5 : 1"
       sodipodi:type="inkscape:persp3d" />
    <inkscape:perspective
       id="perspective3639"
       inkscape:persp3d-origin="0.5 : 0.33333333 : 1"
       inkscape:vp_z="1 : 0.5 : 1"
       inkscape:vp_y="0 : 1000 : 0"
       inkscape:vp_x="0 : 0.5 : 1"
       sodipodi:type="inkscape:persp3d" />
    <inkscape:perspective
       id="perspective3686"
       inkscape:persp3d-origin="0.5 : 0.33333333 : 1"
       inkscape:vp_z="1 : 0.5 : 1"
       inkscape:vp_y="0 : 1000 : 0"
       inkscape:vp_x="0 : 0.5 : 1"
       sodipodi:type="inkscape:persp3d" />
    <inkscape:perspective
       id="perspective2857"
       inkscape:persp3d-origin="0.5 : 0.33333333 : 1"
       inkscape:vp_z="1 : 0.5 : 1"
       inkscape:vp_y="0 : 1000 : 0"
       inkscape:vp_x="0 : 0.5 : 1"
       sodipodi:type="inkscape:persp3d" />
    <inkscape:perspective
       id="perspective3679"
       inkscape:persp3d-origin="0.5 : 0.33333333 : 1"
       inkscape:vp_z="1 : 0.5 : 1"
       inkscape:vp_y="0 : 1000 : 0"
       inkscape:vp_x="0 : 0.5 : 1"
       sodipodi:type="inkscape:persp3d" />
    <inkscape:perspective
       id="perspective3674"
       inkscape:persp3d-origin="0.5 : 0.33333333 : 1"
       inkscape:vp_z="1 : 0.5 : 1"
       inkscape:vp_y="0 : 1000 : 0"
       inkscape:vp_x="0 : 0.5 : 1"
       sodipodi:type="inkscape:persp3d" />
  </defs>
  <sodipodi:namedview
     id="base"
     pagecolor="#ffffff"
     bordercolor="#666666"
     borderopacity="1.0"
     inkscape:pageopacity="0.0"
     inkscape:pageshadow="2"
     inkscape:zoom="0.47500864"
     inkscape:cx="335.73901"
     inkscape:cy="566.55957"
     inkscape:document-units="px"
     inkscape:current-layer="layer1"
     showgrid="false"
     inkscape:window-width="986"
     inkscape:window-height="671"
     inkscape:window-x="189"
     inkscape:window-y="0"
     inkscape:window-maximized="0"
     inkscape:snap-global="true"
     showguides="true"
     inkscape:guide-bbox="true" />
  <metadata
     id="metadata7">
    <rdf:RDF>
      <cc:Work
         rdf:about="">
        <dc:format>image/svg+xml</dc:format>
        <dc:type
           rdf:resource="http://purl.org/dc/dcmitype/StillImage" />
        <dc:title></dc:title>
      </cc:Work>
    </rdf:RDF>
  </metadata>
  <g
     inkscape:label="Layer 1"
     inkscape:groupmode="layer"
     id="layer1"
	 transform="translate(0,-100)">
    <path
       style="fill:#ffffa4;fill-opacity:1;fill-rule:evenodd;stroke:#000000;stroke-width:10;stroke-miterlimit:4;stroke-opacity:1;stroke-dasharray:none"
       d="m 497.40625,294.1875 -42.4375,41.0625 17.90625,45.125 c 0,0 111.67821,32.99567 187.53125,-24.625 -39.30527,0.34556 -85.17908,-12.99538 -85.17908,-12.99538 0,0 30.83426,-9.41495 67.24158,-32.16087 -53.01728,12.55111 -145.0625,-16.40625 -145.0625,-16.40625 z"
       id="path5278"
       sodipodi:nodetypes="ccccccc" />
    <path
       style="fill:#ffffa4;fill-opacity:1;fill-rule:evenodd;stroke:#000000;stroke-width:10;stroke-miterlimit:4;stroke-opacity:1;stroke-dasharray:none"
       d="m 120.44553,466.55892 c 0,0 -44.704674,82.40706 -64.328862,95.80894 37.333822,0 65.697562,-30.11138 65.697562,-30.11138 0,0 9.24188,55.9697 -16.42439,91.70284 22.97466,-1.43592 78.06916,-30.43117 78.06916,-30.43117 0,0 -3.51915,32.86898 -23.32119,59.17386 80.6803,-9.88703 143.60682,-96.57324 143.60682,-96.57324 l -183.2991,-89.56985 z"
       id="path5276"
       sodipodi:nodetypes="cccccccc" />
    <g
       id="g3699"
       transform="matrix(1.2710767,0,0,1.1411235,-155.95814,-82.073826)">
      <path
         sodipodi:nodetypes="cssss"	
         id="path3693"
         d="m 373.86319,767.13516 c -15.02204,9.50707 -51.95195,72.44668 -40.38451,102.01147 13.55166,34.6362 33.43285,45.54733 50.74675,38.22483 23.18316,-9.80476 34.47822,-111.97003 33.61148,-127.19642 -0.57462,-10.09451 -10.28633,-34.35978 -43.97372,-13.03988 z"
         style="color:#000000;fill:#ffffff;fill-opacity:1;fill-rule:nonzero;stroke:#000000;stroke-width:8.30324364;stroke-linecap:butt;stroke-linejoin:miter;stroke-miterlimit:4;stroke-opacity:1;stroke-dasharray:none;stroke-dashoffset:0;marker:none;visibility:visible;display:inline;overflow:visible;enable-background:accumulate" />
      <path
         style="color:#000000;fill:#ff7eb2;fill-opacity:1;fill-rule:nonzero;stroke:#000000;stroke-width:4.15162181999999991;stroke-linecap:butt;stroke-linejoin:miter;stroke-miterlimit:4;stroke-opacity:1;stroke-dasharray:none;stroke-dashoffset:0;marker:none;visibility:visible;display:inline;overflow:visible;enable-background:accumulate"
         d="m 372.54509,769.77135 c -10.31304,8.41427 -45.72303,89.20591 -21.07361,105.22118 16.36223,-25.25092 47.78333,-13.7236 48.77422,8.19012 12.32689,-33.96891 18.22656,-91.84613 17.59121,-103.00761 -0.57462,-10.09451 -14.59991,-35.4448 -45.29182,-10.40369 z"
         id="path3695"
         sodipodi:nodetypes="cccss" />
      <path
         sodipodi:nodetypes="cccccc"
         id="path3697"
         d="m 367.09016,850.03421 31.63434,7.90859 -33.61149,-25.7029 32.95244,9.88572 -27.021,-26.36195 32.95244,11.86289"
         style="color:#000000;fill:none;stroke:#000000;stroke-width:4.15162182;stroke-linecap:butt;stroke-linejoin:miter;stroke-miterlimit:4;stroke-opacity:1;stroke-dasharray:none;stroke-dashoffset:0;marker:none;visibility:visible;display:inline;overflow:visible;enable-background:accumulate" />
    </g>
    <path
       style="color:#000000;fill:#000000;fill-opacity:1;fill-rule:nonzero;stroke:#000000;stroke-width:10;stroke-linecap:butt;stroke-linejoin:miter;stroke-miterlimit:4;stroke-opacity:1;stroke-dasharray:none;stroke-dashoffset:0;marker:none;visibility:visible;display:inline;overflow:visible;enable-background:accumulate"
       d="M 337.96398,796.61844 C 468.59414,696.32819 568.07006,663.91224 568.07006,663.91224 l 21.65704,43.33263 c 0,0 -84.30596,11.82942 -230.10608,127.28962 -8.31253,6.58276 -24.79692,-2.74041 -29.32057,-12.33331 -3.7967,-8.0513 0.59987,-20.16939 7.66353,-25.58274 z"
       id="path2870"
       sodipodi:nodetypes="cccsss" />
    <g
       id="g3784"
       style="fill:#ffccaa"
       transform="matrix(0.84645123,0,0,0.84681371,4.9869463,146.50149)">
      <path
         sodipodi:nodetypes="cccccccscscscssccsccc"
         id="path3704"
         d="M 724.125,294.15625 668.375,302 653.96875,298.625 c 0,0 -12.30548,22.23574 -13.5,30.4375 -3.27367,58.05041 53.03318,58.23779 55.625,58.15625 L 704.625,411.125 C 436.0628,497.17355 205.0625,601.25 205.0625,601.25 c 0,0 -34.67018,-33.08577 -85.75,-7.4375 -13.68217,6.87011 -3.75,26.09375 -3.75,26.09375 0,0 -25.180697,12.81039 -22.34375,29.8125 1.596917,9.57048 22.34375,18.65625 22.34375,18.65625 0,0 -5.09359,31.65724 5.61479,39.59805 10.60355,7.86308 39.13521,-6.0668 39.13521,-6.0668 0,0 8.16723,16.15699 19.57494,17.22689 7.9171,0.74252 16.46719,-2.44791 20.49171,-9.30613 7.64871,-13.03424 8.4021,-41.45201 8.4021,-41.45201 0,0 257.89777,-109.33032 566.6875,-216.25 0,0 5.36501,-0.9905 7.06031,-2.88437 8.86394,-9.90212 -11.44381,-52.43329 -32.15406,-83.86563 33.8167,-24.11387 19.27225,-32.12085 22.375,-46 l -48.625,-25.21875 z"
         style="color:#000000;fill:#ffccaa;fill-opacity:1;fill-rule:nonzero;stroke:#000000;stroke-width:11.81150055;stroke-linecap:butt;stroke-linejoin:miter;stroke-miterlimit:4;stroke-opacity:1;stroke-dasharray:none;stroke-dashoffset:0;marker:none;visibility:visible;display:inline;overflow:visible;enable-background:accumulate" />
      <path
         sodipodi:nodetypes="csssssscsssssscscccsss"
         d="m 743.24265,307.97227 3.62569,-19.59304 c 1.58978,-8.59105 18.05764,-10.25743 25.56398,-5.78661 7.94546,4.73233 9.7254,17.73343 7.50258,26.71028 -1.46276,5.90722 -6.98915,10.8114 -12.5683,13.24194 -5.70549,2.48557 -13.54455,3.7218 -18.66921,0.19073 -4.32004,-2.97666 -6.40935,-9.60462 -5.45474,-14.7633 z m -43.22179,-12.83223 c -4.39321,-9.90187 7.64762,-24.83365 18.28839,-26.86375 11.01282,-2.10108 29.64913,7.81788 27.83451,18.88148 l -3.54218,21.59605 c -0.91591,5.58416 -6.92191,10.38375 -12.46431,11.52549 -7.78909,1.60456 -19.26723,-0.68625 -22.49243,-7.95554 l -7.62398,-17.18373 z m -1.42297,-0.40813 c -3.24389,-7.1904 -16.30711,-8.74291 -23.16392,-4.84305 -3.99654,2.27306 -6.25775,6.94802 -7.17152,11.94598 3.89619,4.52253 10.74888,20.99181 8.51815,23.88949 2.5764,4.57523 6.72479,6.82313 11.35403,7.08667 4.97367,1.00563 7.4943,0.89281 12.49729,-2.71488 4.79042,-3.45443 8.90954,-11.10678 6.4808,-16.49031 l -8.51483,-18.8739 z"
         style="color:#000000;fill:#ffccaa;fill-opacity:1;fill-rule:nonzero;stroke:#000000;stroke-width:11.81150055;stroke-linecap:butt;stroke-linejoin:miter;stroke-miterlimit:4;stroke-opacity:1;stroke-dasharray:none;stroke-dashoffset:0;marker:none;visibility:visible;display:inline;overflow:visible;enable-background:accumulate"
         id="path3722" />
    </g>
    <path
       style="color:#000000;fill:#ff7eb2;fill-opacity:1;fill-rule:nonzero;stroke:#000000;stroke-width:10;stroke-linecap:butt;stroke-linejoin:miter;stroke-miterlimit:4;stroke-opacity:1;stroke-dasharray:none;stroke-dashoffset:0;marker:none;visibility:visible;display:inline;overflow:visible;enable-background:accumulate"
       d="M 559.94867,506.83144 243.92123,614.51165 c -5.42778,19.20023 -15.28808,35.98273 27.0713,81.24868 l 75.09285,-34.55637 c 49.72374,32.02546 56.93187,111.28638 56.93187,111.28638 58.39496,-4.60041 75.05298,-53.01768 151.51716,-95.03665 0,0 -13.15298,-58.0109 -46.02121,-86.66526 l 81.2139,-32.49948 c -16.89237,-6.70317 -30.68337,-18.05838 -29.77843,-51.45751 z"
       id="path2847"
       sodipodi:nodetypes="ccccccccc" />
    <path
       style="fill:#ffccaa;fill-opacity:1;stroke:#000000;stroke-width:10;stroke-linecap:butt;stroke-linejoin:miter;stroke-miterlimit:4;stroke-opacity:1;stroke-dasharray:none"
       d="m 135.58228,442.46715 c -94.244263,15.20912 -74.406196,110.05558 19.34746,72.58404 0,0 -11.27832,127.4242 195.86686,81.23618 110.7048,-24.68431 217.12128,-67.58479 220.10346,-190.11223 8.97296,-287.29851 -466.01063,-224.93146 -435.31778,36.29201 z"
       id="path2839"
       sodipodi:nodetypes="ccscc" />
    <g
       id="g3744"
       transform="matrix(0.84645123,0,0,0.84681371,5.6546554,141.2703)"
       style="stroke:#000000;stroke-width:1.18115008;stroke-opacity:1">
      <path
         transform="matrix(0.67102636,0,0,0.85140562,82.734717,84.706157)"
         sodipodi:type="arc"
         style="fill:#000000;fill-opacity:1;stroke:#000000;stroke-width:1.18115008;stroke-opacity:1"
         id="path3742"
         sodipodi:cx="254.28572"
         sodipodi:cy="452.36218"
         sodipodi:rx="48.57143"
         sodipodi:ry="34.285713"
         d="m 302.85715,452.36218 c 0,18.93548 -21.74617,34.28572 -48.57143,34.28572 -26.82526,0 -48.57143,-15.35024 -48.57143,-34.28572 0,-18.93547 21.74617,-34.28571 48.57143,-34.28571 26.82526,0 48.57143,15.35024 48.57143,34.28571 z" />
      <path
         transform="matrix(0.67102636,0,0,0.85140562,96.38996,66.292177)"
         sodipodi:type="arc"
         style="fill:#ffffff;fill-opacity:1;fill-rule:evenodd;stroke:#000000;stroke-width:1.18115008;stroke-opacity:1"
         id="path3617"
         sodipodi:cx="254.28572"
         sodipodi:cy="452.36218"
         sodipodi:rx="48.57143"
         sodipodi:ry="34.285713"
         d="m 302.85715,452.36218 c 0,18.93548 -21.74617,34.28572 -48.57143,34.28572 -26.82526,0 -48.57143,-15.35024 -48.57143,-34.28572 0,-18.93547 21.74617,-34.28571 48.57143,-34.28571 26.82526,0 48.57143,15.35024 48.57143,34.28571 z" />
      <path
         id="path3623"
         d="m 266.4179,421.02331 c -13.82716,0 -25.0259,8.93724 -29.76165,19.82044 5.39505,-3.54396 12.04662,-5.625 19.25,-5.625 18.00046,0 32.59375,13.06573 32.59375,29.1875 0,3.7236 -0.76843,7.28799 -2.1875,10.5625 8.07282,-5.3132 13.3125,-13.87073 13.3125,-23.53125 0,-16.12177 -15.20664,-30.41419 -33.2071,-30.41419 z"
         style="fill:#595959;fill-opacity:1;fill-rule:evenodd;stroke:none"
         sodipodi:nodetypes="ccsscsc" />
      <path
         d="m 302.85715,452.36218 c 0,18.93548 -21.74617,34.28572 -48.57143,34.28572 -26.82526,0 -48.57143,-15.35024 -48.57143,-34.28572 0,-18.93547 21.74617,-34.28571 48.57143,-34.28571 26.82526,0 48.57143,15.35024 48.57143,34.28571 z"
         sodipodi:ry="34.285713"
         sodipodi:rx="48.57143"
         sodipodi:cy="452.36218"
         sodipodi:cx="254.28572"
         id="path3628"
         style="fill:none;stroke:#000000;stroke-width:15.62669182;stroke-miterlimit:4;stroke-opacity:1;stroke-dasharray:none"
         sodipodi:type="arc"
         transform="matrix(0.67102636,0,0,0.85140562,96.38996,66.292177)" />
      <path
         d="m 302.85715,452.36218 c 0,18.93548 -21.74617,34.28572 -48.57143,34.28572 -26.82526,0 -48.57143,-15.35024 -48.57143,-34.28572 0,-18.93547 21.74617,-34.28571 48.57143,-34.28571 26.82526,0 48.57143,15.35024 48.57143,34.28571 z"
         sodipodi:ry="34.285713"
         sodipodi:rx="48.57143"
         sodipodi:cy="452.36218"
         sodipodi:cx="254.28572"
         id="path3619"
         style="fill:#000000;fill-opacity:1;fill-rule:evenodd;stroke:#000000;stroke-width:1.18115008;stroke-opacity:1"
         sodipodi:type="arc"
         transform="matrix(0.32774952,0,0,0.41585219,175.09349,268.84021)" />
      <g
         transform="translate(-86.383261,82.764776)"
         id="g3738"
         style="stroke:#000000;stroke-width:1.18115008;stroke-opacity:1">
        <path
           style="fill:#ffffff;fill-opacity:1;stroke:#000000;stroke-width:3.54345036;stroke-miterlimit:4;stroke-opacity:1;stroke-dasharray:none"
           d="m 341.70279,357.7106 18.8,0 0,20.7 -18.8,0 0,-20.7 z"
           id="path3699" />
        <path
           id="path3733"
           style="fill:none;stroke:#000000;stroke-width:3.54345036;stroke-miterlimit:4;stroke-opacity:1;stroke-dasharray:none"
           d="m 341.70279,368.40316 18.8,0 m -9.36919,-10.69256 0,20.7" />
      </g>
      <path
         id="path3653"
         style="fill:none;stroke:#000000;stroke-width:11.81150055;stroke-miterlimit:4;stroke-opacity:1;stroke-dasharray:none"
         d="m 279.76448,476.58041 c 0,0 -1.59357,16.32713 8.76466,29.46849 m -27.88755,-27.8756 c 0,0 -6.77269,19.51293 -4.78072,32.25606 m -14.74056,-40.61874 c 0,0 -18.72449,8.76091 -24.70039,31.85784 m 17.67294,-47.95411 c 0,0 -23.37461,9.39848 -39.13673,6.97458 m 40.36955,-19.54935 c 0,0 -18.73059,1.57956 -39.34259,-7.51008 m 48.46546,-4.57156 c 0,0 -20.67376,-2.40721 -28.55482,-17.5566 m 61.7979,-17.81103 c -4.84988,10.90756 5.4554,31.1966 5.4554,31.1966 m -32.93711,-30.76608 c -2.42494,13.93744 14.93793,30.27295 14.93793,30.27295"
         sodipodi:nodetypes="cccccccccccccccc" />
    </g>
    <g
       id="g3754"
       transform="matrix(0.84645123,0,0,0.84681371,291.24474,14.088172)">
      <path
         d="m 302.85715,452.36218 c 0,18.93548 -21.74617,34.28572 -48.57143,34.28572 -26.82526,0 -48.57143,-15.35024 -48.57143,-34.28572 0,-18.93547 21.74617,-34.28571 48.57143,-34.28571 26.82526,0 48.57143,15.35024 48.57143,34.28571 z"
         sodipodi:ry="34.285713"
         sodipodi:rx="48.57143"
         sodipodi:cy="452.36218"
         sodipodi:cx="254.28572"
         id="path3756"
         style="fill:#000000;fill-opacity:1;stroke:none"
         sodipodi:type="arc"
         transform="matrix(0.67102636,0,0,0.85140562,113.63257,83.602662)" />
      <path
         d="m 302.85715,452.36218 c 0,18.93548 -21.74617,34.28572 -48.57143,34.28572 -26.82526,0 -48.57143,-15.35024 -48.57143,-34.28572 0,-18.93547 21.74617,-34.28571 48.57143,-34.28571 26.82526,0 48.57143,15.35024 48.57143,34.28571 z"
         sodipodi:ry="34.285713"
         sodipodi:rx="48.57143"
         sodipodi:cy="452.36218"
         sodipodi:cx="254.28572"
         id="path3758"
         style="fill:#ffffff;fill-opacity:1;fill-rule:evenodd;stroke:none"
         sodipodi:type="arc"
         transform="matrix(0.67102636,0,0,0.85140562,96.38996,66.292177)" />
      <path
         style="fill:#575757;fill-opacity:1;fill-rule:evenodd;stroke:none"
         d="m 267.03125,422.25 c -13.82716,0 -25.63925,7.71055 -30.375,18.59375 5.39505,-3.54396 12.04662,-5.625 19.25,-5.625 18.00046,0 32.59375,13.06573 32.59375,29.1875 0,3.7236 -0.76843,7.28799 -2.1875,10.5625 8.07282,-5.3132 13.3125,-13.87073 13.3125,-23.53125 0,-16.12177 -14.59329,-29.1875 -32.59375,-29.1875 z"
         id="path3760" />
      <path
         transform="matrix(0.67102636,0,0,0.85140562,96.38996,66.292177)"
         sodipodi:type="arc"
         style="fill:none;stroke:#000000;stroke-width:15.62669182;stroke-miterlimit:4;stroke-opacity:1;stroke-dasharray:none"
         id="path3762"
         sodipodi:cx="254.28572"
         sodipodi:cy="452.36218"
         sodipodi:rx="48.57143"
         sodipodi:ry="34.285713"
         d="m 302.85715,452.36218 c 0,18.93548 -21.74617,34.28572 -48.57143,34.28572 -26.82526,0 -48.57143,-15.35024 -48.57143,-34.28572 0,-18.93547 21.74617,-34.28571 48.57143,-34.28571 26.82526,0 48.57143,15.35024 48.57143,34.28571 z" />
      <path
         transform="matrix(0.32774952,0,0,0.41585219,192.88058,260.86669)"
         sodipodi:type="arc"
         style="fill:#000000;fill-opacity:1;fill-rule:evenodd;stroke:none"
         id="path3764"
         sodipodi:cx="254.28572"
         sodipodi:cy="452.36218"
         sodipodi:rx="48.57143"
         sodipodi:ry="34.285713"
         d="m 302.85715,452.36218 c 0,18.93548 -21.74617,34.28572 -48.57143,34.28572 -26.82526,0 -48.57143,-15.35024 -48.57143,-34.28572 0,-18.93547 21.74617,-34.28571 48.57143,-34.28571 26.82526,0 48.57143,15.35024 48.57143,34.28571 z" />
      <g
         id="g3766"
         transform="translate(-77.79639,77.244645)">
        <path
           id="path3768"
           d="m 341.70279,357.7106 18.8,0 0,20.7 -18.8,0 0,-20.7 z"
           style="fill:#ffffff;fill-opacity:1;stroke:#000000;stroke-width:3.54345036;stroke-miterlimit:4;stroke-opacity:1;stroke-dasharray:none" />
        <path
           d="m 341.70279,368.40316 18.8,0 m -9.36919,-10.69256 0,20.7"
           style="fill:none;stroke:#000000;stroke-width:3.54345036;stroke-miterlimit:4;stroke-opacity:1;stroke-dasharray:none"
           id="path3770" />
      </g>
      <path
         id="path3645"
         transform="matrix(1.181403,0,0,1.1808973,-344.0774,-16.636684)"
         style="fill:#ff0000;fill-opacity:1;fill-rule:evenodd;stroke:#000000;stroke-width:9.99999977;stroke-miterlimit:4;stroke-opacity:1;stroke-dasharray:none"
         d="m 509.87761,420.07348 c 0,0 4.04665,11.80272 -4.04665,23.60544 m 22.93101,-29.00097 c 0,0 13.82604,20.90768 13.48882,30.68708 m -3.37221,-38.44316 c 0,0 22.59379,5.39553 28.32654,14.16327 m -60.22273,-48.88908 c 0,0 11.1017,-11.52599 9.04911,-26.4073 m 9.6734,26.4073 c 0,0 17.34254,-7.16678 26.57921,-18.45605 m -13.17977,28.00495 c 0,0 22.9617,-0.7825 39.8956,-13.61121 m -34.93964,24.07827 c 0,0 26.81634,1.93935 38.1056,-4.21844"
         sodipodi:nodetypes="cccccccccccccc" />
    </g>
    <g
       id="g3668"
       transform="matrix(0.83814755,-0.11832306,0.11827241,0.83850648,-17.826314,157.26871)">
      <g
         id="g2855"
         transform="translate(290.21119,-78.673529)">
        <path
           style="fill:#ffffff;fill-opacity:1;stroke:#000000;stroke-width:11.81150055;stroke-miterlimit:4;stroke-opacity:1;stroke-dasharray:none"
           d="m 548.59375,452.625 c -10.69674,3.21878 -21.59022,5.8364 -32.46875,7.90625 4.46509,30.52417 39.67769,19.6614 32.46875,-7.90625 z m -38.8125,9.0625 c -14.72526,2.54034 -29.28718,4.16339 -43.03125,5.15625 8.36973,26.9462 42.51648,30.99127 43.03125,-5.15625 z m -46.125,5.375 c -13.9903,0.9236 -27.07124,1.19029 -38.53125,1.125 1.54438,32.52112 37.39666,31.78481 38.53125,-1.125 z"
           transform="translate(-306.77158,77.244642)"
           id="path2846" />
        <path
           style="fill:none;stroke:#000000;stroke-width:11.81150055;stroke-miterlimit:4;stroke-opacity:1;stroke-dasharray:none"
           d="m 363.10197,491.76218 c 15.94705,-14.72035 17.17374,-25.76061 17.17374,-25.76061 0,0 125.12443,14.16653 208.5383,-29.4407"
           id="path2835"
           sodipodi:nodetypes="ccc"
           transform="translate(-306.77158,77.244642)" />
      </g>
      <path
         id="path3659"
         d="m 504.46875,458.125 c -43.21819,8.85006 -86.39009,9.28231 -113.3125,8.28125 -14.40519,14.35206 -56.83371,63.2646 -10.875,73.1875 46.64634,10.07137 108.27574,-61.7511 124.1875,-81.46875 z"
         style="fill:#000000;fill-opacity:1;fill-rule:evenodd;stroke:none" />
      <g
         transform="translate(290.21119,-78.673529)"
         id="g3661">
        <path
           id="path3663"
           transform="translate(-306.77158,77.244642)"
           d="m 548.59375,452.625 c -10.69674,3.21878 -21.59022,5.8364 -32.46875,7.90625 4.46509,30.52417 39.67769,19.6614 32.46875,-7.90625 z m -38.8125,9.0625 c -14.72526,2.54034 -29.28718,4.16339 -43.03125,5.15625 8.36973,26.9462 42.51648,30.99127 43.03125,-5.15625 z m -46.125,5.375 c -13.9903,0.9236 -27.07124,1.19029 -38.53125,1.125 1.54438,32.52112 37.39666,31.78481 38.53125,-1.125 z"
           style="fill:#ffffff;fill-opacity:1;stroke:#000000;stroke-width:11.81150055;stroke-miterlimit:4;stroke-opacity:1;stroke-dasharray:none" />
      </g>
      <path
         style="fill:none;stroke:#000000;stroke-width:5.90575027;stroke-miterlimit:4;stroke-opacity:1;stroke-dasharray:none"
         d="m 338.56805,515.14883 c -6.11104,38.05626 49.67634,47.97327 88.3221,26.37396"
         id="path3676"
         sodipodi:nodetypes="cc" />
    </g>
    <g
       id="g3656"
       transform="matrix(0.82886296,0.71696228,-0.6886372,0.79679901,449.62987,-310.81008)">
      <path
         sodipodi:nodetypes="csaaasss"
         id="path2872"
         d="m 633.72602,617.01996 c -12.56405,-16.82782 -27.06501,-28.2297 -29.75757,-44.08529 -2.69256,-15.85559 7.65041,-40.86793 23.54325,-50.44865 14.92574,-8.99773 37.58141,-6.88692 52.22099,2.56927 15.46325,9.98824 19.25802,31.72561 25.15538,49.16402 8.5933,25.41027 18.28001,60.10889 14.35002,79.18217 -2.75674,13.37917 -25.79349,26.14712 -39.22252,19.82722 -14.46868,-6.80917 -33.7255,-39.38092 -46.28955,-56.20874 z"
         style="color:#000000;fill:#ff7eb2;fill-opacity:1;fill-rule:nonzero;stroke:#000000;stroke-width:9.30821133000000067;stroke-linecap:butt;stroke-linejoin:miter;stroke-miterlimit:4;stroke-opacity:1;stroke-dasharray:none;stroke-dashoffset:0;marker:none;visibility:visible;display:inline;overflow:visible;enable-background:accumulate" />
      <path
         style="color:#000000;fill:#ffffff;fill-opacity:1;fill-rule:nonzero;stroke:#000000;stroke-width:4.65410566;stroke-linecap:butt;stroke-linejoin:miter;stroke-miterlimit:4;stroke-opacity:1;stroke-dasharray:none;stroke-dashoffset:0;marker:none;visibility:visible;display:inline;overflow:visible;enable-background:accumulate"
         d="m 603.77863,563.21938 c 1.56804,-14.97169 9.92018,-33.24039 23.73307,-40.73336 15.31924,-8.31011 37.58141,-6.88692 52.22099,2.56927 15.46325,9.98824 19.25802,31.72561 25.15538,49.16402 -18.84756,1.78189 -84.78165,29.01963 -101.10944,-10.99993 z"
         id="path3652"
         sodipodi:nodetypes="caacc" />
      <path
         style="color:#000000;fill:#ffffff;fill-opacity:1;fill-rule:nonzero;stroke:#000000;stroke-width:4.65410566;stroke-linecap:butt;stroke-linejoin:miter;stroke-miterlimit:4;stroke-opacity:1;stroke-dasharray:none;stroke-dashoffset:0;marker:none;visibility:visible;display:inline;overflow:visible;enable-background:accumulate"
         d="m 649.84457,617.01996 c -10.22049,-16.82782 -22.0166,-28.2297 -24.20692,-44.08529 -2.19032,-15.85559 6.22339,-40.86793 19.15175,-50.44865 12.14166,-8.99773 30.57139,-6.88692 42.48027,2.56927 12.57891,9.98824 15.66584,31.72561 20.46317,49.16402 6.9904,25.41027 14.87026,60.10889 11.67333,79.18217 -2.24253,13.37917 -20.98226,26.14712 -31.90639,19.82722 -11.76985,-6.80917 -27.43472,-39.38092 -37.65521,-56.20874 z"
         id="path2876"
         sodipodi:nodetypes="csaaasss" />
      <path
         sodipodi:nodetypes="csaasss"
         id="path2878"
         d="m 660.10183,617.01996 c -8.54228,-16.05711 -44.20799,-53.11694 -4.31753,-94.53394 9.51599,-9.88015 26.11047,-6.88692 36.28163,2.56927 10.74342,9.98824 13.37991,31.72561 17.47722,49.16402 5.97037,25.41027 12.70042,60.10889 9.96998,79.18217 -1.91531,13.37917 -17.92057,26.14712 -27.25067,19.82722 -10.05241,-6.80917 -23.25839,-39.47501 -32.16063,-56.20874 z"
         style="color:#000000;fill:#ffffff;fill-opacity:1;fill-rule:nonzero;stroke:#000000;stroke-width:9.30821037;stroke-linecap:butt;stroke-linejoin:miter;stroke-miterlimit:4;stroke-opacity:1;stroke-dasharray:none;stroke-dashoffset:0;marker:none;visibility:visible;display:inline;overflow:visible;enable-background:accumulate" />
      <path
         id="path3668"
         style="color:#000000;fill:none;stroke:#000000;stroke-width:4.65410566;stroke-linecap:butt;stroke-linejoin:miter;stroke-miterlimit:4;stroke-opacity:1;stroke-dasharray:none;stroke-dashoffset:0;marker:none;visibility:visible;display:inline;overflow:visible;enable-background:accumulate"
         d="m 651.14017,583.11947 3.29525,-31.63434 20.43051,15.81717 7.24954,-34.92959 m -13.84003,78.4268 -0.65905,-31.63434 21.08956,15.15813 1.97715,-31.63435 m -9.22668,75.13156 0.65905,-22.40765 17.13526,9.88573 3.29525,-20.43051 m -12.52193,52.7239 1.3181,-17.13527 17.79431,5.27239 0.65905,-15.15812" />
    </g>
    <g
       id="g3687"
       transform="matrix(0.84645123,0,0,0.84681371,4.9869463,146.50149)">
      <path
         style="fill:#ff0000;fill-opacity:1;fill-rule:evenodd;stroke:#000000;stroke-width:5.90575048;stroke-miterlimit:4;stroke-opacity:1;stroke-dasharray:none"
         d="m 526.09088,545.84982 c 0,0 -24.74788,-10.82017 -35.69237,-4.91398 -21.98451,11.86393 -20.72901,39.61965 -4.19064,55.12938 17.84377,16.73393 67.3729,2.649 67.3729,2.649 0,0 16.98919,-49.21099 7.8827,-69.50034 -4.436,-9.88344 -16.48995,-16.94928 -24.75572,-12.74539 -7.82397,3.9792 -10.61687,29.38133 -10.61687,29.38133 z"
         id="path5281"
         sodipodi:nodetypes="csscssc" />
    </g>
    <path
       style="fill:#ffffa4;fill-opacity:1;stroke:#000000;stroke-width:10;stroke-miterlimit:4;stroke-opacity:1;stroke-dasharray:none"
       d="m 98.427353,454.97025 c 0,0 -21.471883,-91.4755 31.040227,-165.92483 76.4691,-108.4145 204.46485,-133.59457 275.61367,-120.18379 93.41137,17.60703 156.65729,131.43151 196.4855,113.6663 0,0 -56.27927,44.95361 -121.05932,3.26205 0,0 5.2221,-11.80986 -5.5245,-39.75103 0,0 48.72108,91.90407 -184.61424,171.14173 52.01057,-33.53313 46.66639,-108.88826 46.66639,-108.88826 0,0 -34.80812,93.54293 -75.18475,114.07342 2.7374,-44.48272 -46.66639,-59.62929 -46.66639,-59.62929 0,0 55.67084,138.53678 -77.77733,215.18394 48.89286,-76.9512 -38.979257,-122.95024 -38.979257,-122.95024 z"
       id="path5267"
       sodipodi:nodetypes="cssccccccccs" />
    <path
       style="fill:#ff0000;fill-opacity:1;fill-rule:evenodd;stroke:#000000;stroke-width:5;stroke-miterlimit:4;stroke-opacity:1;stroke-dasharray:none"
       d="m 194.7923,398.48092 c -40.07359,-7.04595 -41.38852,-51.50124 -41.38852,-51.50124 -3.53742,-12.54175 36.56738,-0.21479 36.56738,-0.21479 0,0 -2.73942,-22.13113 16.38275,-9.62284 0,0 -7.46149,-43.30938 6.69309,-40.11525 38.02868,8.58157 42.13059,56.04012 42.13059,56.04012 0.96475,11.89859 -41.17695,-4.48855 -41.17695,-4.48855 0,0 1.24887,20.85662 -16.77246,10.50963 0,0 7.93669,41.21667 -2.43588,39.39292 z"
       id="path2867"
       sodipodi:nodetypes="ccccscccs" />
  </g>
</svg>
